<?xml version="1.0" encoding="UTF-8"?>
<svg id="Calque_2" data-name="Calque 2" xmlns="http://www.w3.org/2000/svg" viewBox="0 0 1110.06 450.82">
  <defs>
    <style>
      .cls-1 {
        stroke: ivory;
        stroke-miterlimit: 10;
        stroke-width: .5px;
      }
    </style>
  </defs>
  <g id="Calque_1-2" data-name="Calque 1">
    <g>
      <path class="cls-1" d="m100.13,448.51c-1.07-1.11-2.1-2.02-2.3-2.02-.39,0-1.2-1.72-1.2-2.54,0-.29-.41-.86-.92-1.28-1.1-.9-.95-1.29.6-1.54.64-.1,1.33-.43,1.54-.72.21-.29.94-.85,1.62-1.24.68-.39,1.18-.86,1.11-1.06-.07-.19.45-.95,1.16-1.68.96-.99,1.51-1.32,2.16-1.32.48,0,.95-.13,1.05-.29.27-.44,1.8-.35,2.29.14.24.24.52.86.63,1.38.11.52.39,1.39.63,1.93.24.54.38,1.3.31,1.69-.16.82.46,1.27,1.75,1.27.46,0,1,.16,1.2.36.3.29.44.26.75-.15.48-.65.8-.65.69-.01-.05.31.14.54.5.61.32.06.71.27.87.47.16.2.58.52.93.71.56.3,1.25,1.86,1.25,2.84,0,.54-2.02,2.43-3.08,2.88-1.09.46-3.06.55-5.85.27-1.17-.12-1.85-.07-1.98.15-.11.18-.49.33-.84.34-.35,0-1.15.2-1.78.42l-1.14.41-1.94-2.02h0Zm14.28-7.2c0-.62,1.06-1.73,1.36-1.43.1.1-.06.47-.37.81-.31.34-.51.7-.46.8s-.05.23-.22.29c-.17.06-.31-.15-.31-.46h0Zm1.75-.09c0-.17.13-.23.29-.13.16.1.29.24.29.31s-.13.13-.29.13-.29-.14-.29-.31Zm-1.31-3.48c-.1-.16-.04-.29.13-.29s.31.13.31.29-.06.29-.13.29-.21-.13-.31-.29Zm45.47-31.92c-.84-.69-.85-.71-.19-.72.37,0,.93-.15,1.24-.31.67-.36,1.73.09,1.73.73,0,.47-.16.59-1.17.83-.53.13-.98-.02-1.6-.53h0Zm119.57-20.75c-.43-.43-.18-1.26.39-1.26.32,0,.58.18.58.4,0,.49-.71,1.12-.97.86h0Zm-27.11-4.08c-.36-.36-.2-.97.24-.97.24,0,.44.26.44.58,0,.58-.31.76-.68.39Zm10.64-7.18c-.17-.21-.24-.66-.15-1,.14-.52-.09-.75-1.31-1.37-.89-.45-1.97-.75-2.73-.75-.69,0-1.45-.14-1.69-.3-.37-.25-.3-.41.44-1.03.77-.65,1.05-.72,2.33-.56,1.67.21,2.41.75,2.54,1.85.07.6.28.8.96.92.61.1.95.38,1.14.93.44,1.25-.74,2.26-1.53,1.31h0Zm10.88-.14c-.64-.25-1.2-.48-1.24-.51-.32-.21,1-3.87,1.62-4.5.74-.75.8-.76,2.52-.44.97.18,2.03.47,2.35.64.32.17,1.54.32,2.7.33,3.1.03,6.38,1.27,8.31,3.14,1.19,1.15.75,1.29-3.64,1.1-2.28-.09-5.04-.28-6.13-.42-1.87-.23-2.02-.21-2.68.46-.83.83-2.03.89-3.79.19h0Zm.33-11.29c-.53-.53-.54-.57-.64-2.54-.08-1.48.09-1.72,1.52-2.2,1.99-.67,4.16.89,3.72,2.68-.22.88-1.21,1.8-2.17,2.01-.4.09-1,.25-1.34.35-.39.12-.79.02-1.09-.29h0Zm-4.56-4.86l-.73-.61,1.02.22c1.27.27,1.51.41,1.3.75-.26.43-.8.3-1.59-.36Zm.78-8.91c-.97-.14-1.25-.67-.79-1.53.25-.47.56-.6,1.23-.53,1.09.11,1.68.88,1.23,1.6-.36.57-.56.62-1.67.46Zm26.37-2.27c-1.14-.53-2.05-.73-3.39-.73-2.28,0-3.7-.57-5.46-2.22-1.08-1.01-1.61-1.29-2.48-1.33-3.99-.16-4.89-.49-6.92-2.51-.36-.36-.93-.66-1.25-.66s-.74-.18-.92-.4c-.18-.22-.72-.48-1.19-.57-.47-.09-1.01-.47-1.2-.84-.19-.37-.59-.9-.89-1.19s-.54-.77-.54-1.08-.13-.63-.28-.73c-.34-.21-1.47-2.69-1.47-3.24,0-.68,1.53-2.1,3.33-3.09.95-.53,1.77-1.09,1.83-1.26.06-.17-.49-.59-1.21-.94-.97-.47-1.43-.92-1.77-1.74-.64-1.53-.36-3.36.61-3.88.39-.21.72-.49.72-.61s.47-.69,1.05-1.25c1.18-1.15,2.63-1.55,6.25-1.74,1.21-.06,2.6-.32,3.09-.57.49-.25,1.5-.61,2.25-.8.75-.19,1.43-.46,1.52-.6.27-.44,1.08-.28,1.73.33.55.52,1.03.59,4.1.6,1.91,0,3.7.08,3.98.16.77.22.61,1.31-.29,2.03l-.8.63,1.31.36c.72.2,1.47.4,1.68.46.25.07.31.37.18.91-.27,1.11-.37,1.25-.94,1.25-.27,0-.63.29-.78.65-.16.36-.86.95-1.56,1.32-1.07.56-1.67.65-3.79.61-2.27-.05-2.81.05-5.44,1.04-1.6.6-3.03,1.21-3.17,1.35-.33.32.91,1.49,3.35,3.19,1.66,1.16,2.07,1.31,3.76,1.4,2.78.15,3.92.72,4.39,2.21.21.67.5,1.37.64,1.56.14.19.23.58.19.87-.17,1.37.98,2.13,1.3.86.21-.85,1.59-1.47,2.72-1.22,1.58.35,2.41,1.32,2.7,3.17.29,1.78.07,2.27-1.3,3.04-.45.25-.42.38.37,1.27.48.55.95,1.39,1.06,1.87.18.82.09.94-1.39,1.82-1.97,1.18-3.48,1.24-5.67.22h0Zm-.45-27.74c.91-.6.48-.96-1.12-.97-.97,0-1.09.08-1.09.72,0,.59.15.73.74.73.41,0,1.07-.22,1.47-.48Zm-20.58,23.22c0-.16.13-.29.29-.29s.29.13.29.29-.13.29-.29.29-.29-.13-.29-.29Zm-23.47-2.33c.1-.16.38-.29.62-.29s.36.13.26.29-.38.29-.62.29-.36-.13-.26-.29Zm-57.7-1.07c-.24-.61.03-.86,1.2-1.11.74-.16.99-.08,1.23.37.25.46.17.62-.43.89-1.03.47-1.78.41-1.99-.15Zm3.04-1.49c0-.42-2.14-1.07-2.27-.69-.14.41-1.23.44-1.23.04,0-.16-.58-.56-1.28-.89-.71-.33-1.51-.85-1.78-1.15-.47-.52-.44-.64.7-2.38.75-1.15,1.2-2.17,1.2-2.74,0-.5.23-1.11.51-1.37.87-.78,3.66-1.95,4.68-1.96.53,0,1.25-.16,1.6-.34.37-.2,2.07-.35,4.1-.36q3.9-.03,4.54,2.38c.36,1.35,1.1,1.91,3.02,2.27.9.17,1.17.39,1.53,1.25.4.96.39,1.11-.1,1.76-.29.39-.73.81-.96.92-.66.31-2.39.91-3.17,1.08-.39.09-1.16.47-1.72.84-.76.52-1.41.69-2.64.69-.9,0-2.09.12-2.66.26-1.63.42-4.08.65-4.08.39h0Zm150.62.02c-1.21-.19-.78-.81.55-.81.82,0,1.14.12,1.14.43,0,.47-.44.57-1.69.38h0Zm-197.64-2.31c-.12-.12-2.35-.23-4.95-.24-4.28-.02-4.84-.08-5.93-.66-1.49-.79-1.77-1.42-1.04-2.4.88-1.19,2.28-1.98,3.92-2.22,1.82-.26,4.56-.2,5,.11.17.12.84.4,1.48.62,1.97.67,4.67,1.97,5.07,2.46.48.58.27,1.18-.61,1.75-.82.53-2.64.89-2.94.58h0Zm30.42-1.17c-.77-.98-.76-1.17.07-1.38.92-.23,2.28.17,2.66.79.25.4.19.6-.25.93-.86.64-1.8.51-2.47-.35h0Zm-143.44-1.22c-.83-.4-1.02-.66-1.02-1.37s.13-.89.77-.96c.99-.11,2.83.65,3.07,1.28.12.32-.05.67-.51,1.03-.85.66-1.01.66-2.3.03h0Zm176.94-.26c0-.8.95-1.48,2.33-1.66.81-.11,1.6-.12,1.75-.03.38.24.04.98-.61,1.33-.73.39-3.46.67-3.46.36h0Zm14.48-5.24c-.34-.34-.21-1.05.29-1.61.46-.51.42-.59-.71-1.56-1.49-1.28-1.94-3-1.65-6.36.24-2.73.93-3.8,2.67-4.12.6-.11,1.72-.4,2.48-.65,1.52-.49,2.26-.23,2.26.8,0,.61,1.41,4.67,1.74,5.03.12.13.71.03,1.32-.22,2.09-.87,5.5-.39,5.97.84.14.37.38.73.53.78.15.06.36.58.46,1.16.18.96.1,1.12-.79,1.8-1.39,1.06-4.24,1.95-6.26,1.95-.94,0-2.73.09-3.97.19-2.08.18-2.24.24-2.1.79.09.33.01.77-.16.98-.33.4-1.75.52-2.09.19h0Zm139.44-1.7c-.51-.61-.15-1.32.66-1.32.96,0,1.8.68,1.58,1.27-.23.61-1.75.64-2.24.05h0Zm-122.07-2.69c-1.2-.23-.52-1.87,1.09-2.65,1-.48,3.48-.09,3.9.61.27.45.16.67-.69,1.38-1.01.85-2.27,1.04-4.31.65h0Zm147.2-.14c-.19-.19-.35-.52-.35-.73,0-.67.66-.4,1.42.57.35.45.33.51-.16.51-.31,0-.72-.16-.91-.35h0Zm-88.79-2.11c.21-.54,1.09-.63.92-.09-.07.2-.34.41-.61.46-.34.07-.43-.04-.31-.36Zm-204.28-.96c-.78-.12-2.28-1.29-2.28-1.77,0-.59,1.46-1.52,3.48-2.23,2.6-.9,3.23-.94,3.23-.21,0,.93.73,1.31,1.8.94,1.35-.47,1.73.08.55.79-.51.31-1.13.85-1.37,1.19-.24.34-.67.62-.96.62s-1,.2-1.58.44c-1.04.43-1.37.46-2.86.23h0Zm235.07-2.75c-.51-.51-.45-.93.24-1.81.48-.62.85-.77,1.85-.77,1.23,0,2.21.62,2.21,1.4,0,.84-3.64,1.84-4.3,1.18Zm-31.85-2.19c-4.6-2.02-7.37-4.12-8.58-6.53-1.57-3.13-1.22-4.18,1.48-4.42,1.13-.1,1.94-.43,3.31-1.35,2.6-1.74,3.21-1.61,3.75.78.41,1.85,1.97,3.25,3.6,3.26,2.15,0,3.58.61,4.83,2.04.63.72,1.3,1.61,1.5,1.97.3.57.5.64,1.36.48.69-.13,1.22-.05,1.69.26.77.51,1.2,1.64.67,1.78-.19.05-1.26.31-2.38.59-1.12.28-2.21.64-2.41.81-.2.17-1.84.34-3.64.37-1.8.04-3.47.14-3.71.23-.24.09-.9-.04-1.46-.28h0Zm23.96-5.94c-.76-.71-.77-.83-.18-1.67.68-.97,1.87-.84,2.99.32.91.94.92.99.4,1.46-.75.68-2.42.63-3.21-.11h0Zm-156.16-4.07c-.1-.16.03-.29.29-.29s.39.13.29.29c-.1.16-.23.29-.29.29s-.19-.13-.29-.29Zm6.75-.49c-.34-.34-.21-.68.24-.68.24,0,.44.2.44.44,0,.46-.34.58-.68.24h0Zm29.37-.5c-.3-.79.43-1.35,1.78-1.35,2.47,0,2.24,1.39-.29,1.68-1.03.12-1.34.05-1.49-.33h0Zm-179.67-1.76c-.49-.59.07-.82,1.63-.69.76.06,1.12.23,1.12.53,0,.63-2.26.76-2.75.16Zm335.22-3.66c0-.16.13-.29.29-.29s.29.13.29.29-.13.29-.29.29-.29-.13-.29-.29Zm-84.76-1.51c.2-.6,1.22-1.11,1.67-.84.35.21.35.34.04.72-.44.53-1.87.63-1.7.12h0Zm-59.92-1.02c-.11-.11-.19-.43-.19-.73,0-.37.22-.53.71-.53.94,0,1.26.57.59,1.06-.6.44-.82.48-1.11.2Zm55.19-1.23c-.52-.14-.62-.27-.35-.44.49-.3,1.88.04,1.65.41-.19.31-.26.31-1.3.02h0Zm97.69-1.59c-.42-.5.03-1.95.61-1.94.68,0,2.7,1.32,2.7,1.75,0,.61-2.83.76-3.31.19Zm-28.87-1.33c-.51-.32-.21-1.73.42-1.97.24-.09.96.19,1.6.64.91.63,1.09.89.83,1.2-.37.44-2.22.53-2.85.13h0Zm21.61.07c-.2-.08-.29-.27-.2-.41.22-.36,1.88-.34,1.88.02,0,.16-.12.29-.27.29s-.44.06-.66.12c-.21.07-.55.06-.75-.02Zm-157.78-.39c-.4-.13-1.15-.24-1.66-.26-.51-.02-1.01-.17-1.12-.33-.13-.2.52-.28,1.95-.22,1.61.06,2.14.19,2.14.5,0,.52-.38.61-1.31.31h0Zm-45.62-.76c-.82-.23-1.9-.34-2.48-.24-.56.1-3.33.16-6.15.14-5.12-.03-6.23-.19-9.3-1.33-1.73-.64-2.27-1.17-2.65-2.58-.31-1.15-.3-1.19.85-2.21,1.55-1.38,6.62-3.81,7.94-3.81.25,0,.58-.12.73-.26.15-.15,1.26-.54,2.46-.89,1.2-.34,3.04-1.01,4.08-1.47,1.04-.47,2.88-.99,4.08-1.17,1.2-.18,2.58-.48,3.06-.67.56-.22,2.91-.36,6.56-.38,3.13-.02,6.08-.08,6.56-.15.72-.09.89,0,.97.53.06.4-.13.78-.51,1.02-.76.47-.76.88-.02,1.55.62.56.78,1.31.29,1.31-.16,0-.29.21-.29.48,0,.39.22.45,1.24.31,1.13-.15,1.33-.08,2.29.85,1.19,1.16,2.41,1.36,3.59.59,1.04-.68,1.38-.61,1.17.24-.15.6-.04.78.65,1.08.46.2.88.39.94.43.06.04-.06.86-.27,1.81-.52,2.36-1.31,2.77-5.53,2.85-1.69.03-3.52.14-4.08.24-.56.1-1.94.04-3.06-.14-4.33-.67-4.64-.67-6.3.1-.86.4-1.84.81-2.18.91-.34.1-.85.44-1.14.76-.6.66-1.45.69-3.49.11h0Zm146.12-.61c-.61-.16-.68-.84-.11-1.06.5-.19,1.71.62,1.48.99-.17.28-.5.3-1.37.07h0Zm-88.94-.29c-.35-.35,1.05-1.54,2.04-1.73.54-.1.97-.36.97-.58,0-.52.92-1,1.63-.85,2.05.42,2.16.47,2.16,1.04,0,.64-.99,1.15-2.28,1.16-.71,0-.74.04-.27.4.28.21.51.47.51.57,0,.25-4.51.24-4.76-.01h0Zm26.84-.12c-.84-.49-.13-1.43,1.09-1.43s1.47.35.97,1.15c-.4.64-1.24.76-2.06.28Zm76.09-.43c-1.27-.69-1.03-1.29.5-1.29,1.27,0,1.91.48,1.91,1.44,0,.45-1.47.36-2.4-.15h0Zm17.78-.44c-.72-.42-.63-.85.16-.85.66,0,1.37.48,1.37.93,0,.32-.92.28-1.53-.08h0Zm-43.94-.56c0-.16.14-.29.31-.29s.23.13.13.29-.24.29-.31.29-.13-.13-.13-.29Zm-13.34-.19c-.5-.2-.46-.88.08-1.08.58-.22,1.89.39,1.89.88,0,.38-1.2.51-1.97.2h0Zm-51.82-.45c-1.23-.43-1.49-.69-2.2-2.16-.44-.9-.92-1.42-1.59-1.7-1.04-.44-1.74-1.41-1.48-2.08.22-.58.52-.52,1.75.31.59.4,1.21.73,1.38.73s.7-.33,1.18-.73c1.11-.93,1.85-.91,3.3.08,2.73,1.86,3.35,2.51,3.35,3.48,0,1.05-.36,1.32-2.57,1.99-1.58.48-1.93.49-3.12.07h0Zm-15.01-1.51c0-.51.88-.87,1.25-.5.15.15.19.42.08.59-.28.46-1.33.39-1.33-.09h0Zm72.88.03c0-.48.35-.64,2.08-.94.68-.12,1.13-.07,1.27.16.33.54-.17.82-1.82,1.04-1.28.17-1.53.13-1.53-.25Zm-66.6-.18c-.22-.35,1.5-1.57,1.88-1.34.43.26.36.73-.11.73-.22,0-.56.2-.76.44-.41.5-.77.56-1.01.17h0Zm19.08-.02c0-.16.14-.29.31-.29s.23.13.13.29-.24.29-.31.29-.13-.13-.13-.29Zm92.98-.45c-.29-.35-.29-.53-.03-.8.42-.42,1.3.04,1.44.77.12.62-.91.64-1.42.03h0Zm-94.73-.13c0-.16.13-.29.29-.29s.29.13.29.29-.13.29-.29.29-.29-.13-.29-.29Zm67.42-.53c-1.4-.48-2.6-.67-4.16-.67-2.26.01-3.32-.22-5.49-1.19-.92-.41-1.76-.54-3.04-.47l-1.78.09-.28-.95c-.18-.63-.51-1.01-.96-1.12-.38-.09-1.17-.42-1.77-.72-.59-.3-1.46-.55-1.91-.55-1.41,0-2.05-.51-1.85-1.48.14-.72-.02-1.02-1.16-2.09-1.46-1.37-1.95-1.66-1.7-1.01.09.24.02.52-.17.64-.2.12-.4-.05-.49-.41-.09-.34-.28-.61-.42-.61s-.26-.13-.26-.29.2-.29.44-.29c.82,0,.38-1.43-.83-2.7-.3-.31-1.11-.82-1.8-1.12-1.56-.69-1.83-1.41-1.04-2.74.78-1.32.48-2.13-.69-1.9-.15.03-1.32.11-2.6.18-1.52.08-2.48.27-2.8.56-.69.63-1.11.55-2.19-.39-.68-.59-1.4-.89-2.52-1.04-2.34-.3-3.66-.76-4.38-1.53-.35-.38-.88-.69-1.18-.69-.62,0-.68.32-.17.83.55.55-.12.83-2.58,1.06-2.54.24-3.8.02-4.2-.75-.51-.95-2.52-.74-3.86.41-.96.83-1.05,1.01-.72,1.46.26.35.93.57,2.12.69,1.83.18,2.76.51,2.76.98,0,.15-.19.28-.42.28s-.46.3-.51.66c-.08.55-.33.68-1.59.84-.83.1-1.67.29-1.87.41-.65.4-4.46.39-4.93-.02-.24-.21-1-.52-1.69-.71-.69-.18-1.74-.77-2.33-1.3-1.43-1.29-3.17-1.82-6.18-1.88-1.36-.03-3.84-.18-5.5-.35-2.78-.27-3.13-.38-4.34-1.3-1.46-1.12-1.87-1.21-2.4-.57-.2.24-.6.44-.89.44s-.76.23-1.04.51c-.49.49-.51.49-.32,0,.22-.58-.09-.67-.59-.17-.23.23-.24.51-.06.86.45.85-.16,1.95-1.37,2.45-1.41.59-3.4.26-3.56-.59-.14-.79-.91-1.59-1.51-1.59-.27,0-.94.52-1.49,1.16-1.55,1.82-3.34,2.2-5.58,1.2-1.81-.81-2.58-.93-3.64-.55-1.09.39-1.2.67-.36.89.97.25.68.84-.36.74-.6-.06-.95-.25-.96-.53-.01-.46-.62-.44-1.21.05-.26.22-.27.42-.03.81.44.7.17,1.26-1.04,2.19-.79.6-1.14.71-1.55.49-.29-.16-1.17-.45-1.94-.65-1.58-.4-1.95-.91-1.23-1.7.27-.3.51-.9.55-1.35.06-.77-.01-.82-1.25-.89-2.9-.17-4.56-.38-5.33-.68-.73-.28-.8-.42-.63-1.28.17-.93.14-.98-1.01-1.33-1.59-.48-3.22-1.46-3.22-1.94,0-.42-1.09-.89-1.39-.6-.1.1.11.56.46,1.04.75,1.01.78,1.17.21,1.17-.23,0-1.04-.72-1.8-1.6-.76-.88-1.62-1.68-1.91-1.77-.61-.19-.72-.71-.15-.71.21,0,.62-.17.91-.39.43-.31.47-.5.21-.99-.25-.47-.23-.68.11-.96.24-.2.43-.6.43-.91s.14-.55.31-.55.77-.35,1.32-.77l1.01-.77-.13-2.94c-.09-2.16-.02-3.15.28-3.73.23-.44.41-1.1.41-1.47s.21-.98.46-1.34c.42-.6.42-.72,0-1.38-.42-.65-.43-.8-.03-1.58.24-.47.45-1.1.45-1.38,0-.63.57-2.23,1.21-3.44.65-1.22.5-4.79-.24-5.8-.68-.94-1.04-.96-.81-.05.19.78-.49,1.34-1.62,1.34-.58,0-2.98-.86-4.18-1.5-.4-.21-.68-.16-1.09.22-.73.66-.84.5-.64-.99.11-.85.43-1.5.99-2.02.81-.77.82-.78.25-1.31-.31-.29-.57-.73-.57-.97,0-.66.83-.84,1.42-.31.29.26.79.47,1.12.47s.76.2.96.44c.26.32.47.35.73.13.27-.23.53-.1.98.47.34.43.61.88.61,1s.42.63.93,1.13c1.04,1.01,1.76.99,2.65-.07.92-1.1,1.16-2.03,1.12-4.45-.03-1.79.07-2.46.4-2.73.24-.2.64-1.07.89-1.92.25-.86.58-1.64.73-1.73.34-.21.36-2.76.02-2.76-.14,0-.09-.98.09-2.19.24-1.54.54-2.39,1-2.89.47-.5.64-.98.58-1.68-.05-.54.03-1.16.17-1.38.17-.27.07-.54-.29-.8-.45-.33-.64-.32-1.2.04-.58.38-.89.38-2.4.03-.95-.22-2.11-.61-2.56-.85-.46-.25-1.06-.52-1.34-.61-.28-.09-.51-.42-.51-.73s-.12-.65-.26-.74c-.15-.09-.2-.43-.11-.75s.07-.58-.04-.58c-.19,0-1.51,1.34-1.68,1.7-.11.25-1.94,1.21-2.3,1.21-.15,0-.27-.25-.27-.57,0-.52-.06-.53-.79-.16-.61.31-.88.33-1.2.07-.32-.27-.5-.22-.81.21-.22.3-.49.47-.59.36s-.03-.38.17-.62c.44-.53.17-1.04-.57-1.04-.3,0-.63-.13-.73-.29-.36-.58-.2-2.9.29-4.12.38-.95-.37-.79-1.1.23-.63.88-.7,1.16-.43,1.75.43.95-.24,1.61-1.64,1.61-.92,0-1.05.09-1.05.7,0,.38.13.7.29.7s.29.2.29.44.26.44.57.44.71.26.88.58c.27.5.22.58-.32.58-.5,0-.56.08-.3.39.28.34.44,1.07.59,2.74.02.2.23.36.47.36.49,0,.57-.33.18-.74-.39-.42-.03-2.24.41-2.07.24.09.32-.05.22-.42-.15-.58.36-1.43.86-1.43.16,0,.21.2.12.44-.13.33.06.44.79.44.52,0,1.11-.15,1.3-.34.4-.4,1.39.34,1.67,1.24.1.3.51.57.95.62.71.08.8.22.88,1.39.07.96-.04,1.4-.39,1.66-.27.2-.41.49-.31.65.1.16-.05.36-.34.45-.28.09-.65.46-.81.82-.49,1.11-1.89,1.02-4-.26-1-.6-2.03-1.35-2.29-1.65-.4-.48-.54-.51-1.08-.17-.79.5-1.17.13-.56-.54.32-.35.38-.66.2-.95-.34-.54-.79-.11-.92.88-.07.52-.3.76-.83.83-.4.05-.94.29-1.2.52-.58.51-2.01.08-2.01-.61,0-.29-.28-.45-.8-.45-1.23,0-1.66-.38-1.23-1.07.3-.48.24-.69-.37-1.35-.66-.71-1.39-1.03-1.39-.62,0,.29.82,1,1.15,1,.6,0,.31.6-.44.88-.98.37-1,.37-1-.21,0-.39-.08-.42-.35-.15-.19.19-.72.35-1.17.35-.62,0-.82.14-.82.58,0,.32.13.58.29.58s.29.18.29.41.21.49.47.59c.34.13.42.39.28.93-.11.44-.04.93.16,1.18.27.32.27.5.01.76-.19.19-.34.56-.34.84,0,.72-.8,1.42-1.6,1.42-.69,0-1.13.69-.96,1.5.14.66-1.79.41-2.29-.31-.29-.41-.74-.61-1.4-.61s-1.02-.16-1.14-.51c-.09-.28-.34-.74-.54-1.02-.3-.41-.3-.63.02-1.13.25-.4.29-.72.1-.9-.43-.43-1.31-.16-1.65.5-.71,1.36-1.43,2.2-2.01,2.35-.57.14-.62.35-.62,2.37,0,2.07.05,2.23.7,2.47.54.2.84.13,1.33-.33.35-.32.86-.59,1.13-.59s.73-.39,1-.87c.57-1,1.08-1.08,2.51-.39.78.37,1.04.69,1.1,1.36.05.48.26.94.48,1.01.25.08.35-.07.3-.41-.14-.85.44-.87.91-.03.4.71.38.82-.22,1.46-.72.77-.82,1.38-.31,1.89.44.44-.18,1.24-.96,1.24-.3,0-.55.14-.55.31,0,.43-1.83,1.15-2.19.86-.16-.13-.78-.33-1.38-.44-1.16-.22-2.26-1.53-2.26-2.7,0-1.81-1.34-2.11-2.28-.52-.65,1.1-1.19,1.26-3.77,1.09-.99-.06-1.53-.23-1.53-.47,0-.2-.25-.68-.55-1.07-.3-.38-.64-1.12-.75-1.64-.27-1.23-.55-1.37-1.37-.66-2.46,2.1-2.8,2.27-4.08,2.04-.68-.12-1.4-.47-1.6-.76-.2-.3-.52-.71-.7-.92-.47-.54-.86-2.07-.86-3.35,0-1.56.98-2.78,2.55-3.17.69-.17,1.31-.4,1.37-.51.07-.11-.26-.63-.73-1.17-.47-.54-.85-1.2-.85-1.48s-.14-.9-.31-1.39c-.3-.86-.33-.88-1.15-.47-.46.23-.93.68-1.03,1.01-.31.99-1.11.5-1.93-1.19-.81-1.67-1.29-4.25-.97-5.25.14-.45.44-.59,1.32-.59,1.36,0,2.41.91,3.25,2.82.31.69.65,1.26.77,1.26s.43-.37.7-.82c.46-.78,2.03-1.51,3.25-1.51.34,0,.18-.27-.53-.89-.56-.49-1.24-1.48-1.52-2.21l-.5-1.32-.68.86c-1.26,1.61-4.31,1.47-5.77-.26-.97-1.16-1.1-3.85-.2-4.33.3-.16.69-.69.86-1.18.3-.87.34-.88,2.33-.88s2.06.04,2.93,1.03c.94,1.07,1.13,2.08.59,3.1-.22.42-.23.69-.01.9.45.45,1.05-.16,1.45-1.48.37-1.22,1.23-1.8,2.67-1.8,1.29,0,1.26-.36-.16-1.73-.71-.69-1.3-1.44-1.3-1.67s.33-.72.73-1.09c.69-.64.76-1.62.11-1.62-.43,0-.28-.69.31-1.38.3-.36.8-.66,1.1-.66s.81-.19,1.12-.43.8-.43,1.08-.44c.28,0,.51-.05.51-.11s-.52-.65-1.17-1.32c-1.03-1.08-1.17-1.39-1.17-2.62,0-1.14.18-1.63.99-2.68,1.75-2.28,1.63-4.93-.21-4.93-.48,0-1.1.2-1.38.45-.46.41-.63.4-1.87-.19-.75-.35-1.72-1.1-2.15-1.65s-1.09-1.39-1.47-1.86l-.69-.85-.94.58c-.75.46-1.35.56-2.86.49-1.91-.09-2.84-.49-2.84-1.24,0-.22-.26-.82-.58-1.35-1-1.65-.63-3.22,1.13-4.8l1.04-.93-.68-.93c-.54-.72-.65-1.17-.53-2.06.19-1.39-.1-1.62-.89-.71-.33.38-1,.78-1.5.89-.49.11-.97.32-1.06.47s-.54.27-1,.27c-1.12,0-1.82-.94-2.74-3.69-.68-2.04-.71-2.27-.31-3.05.24-.46.56-.84.71-.84s.48-.31.72-.68c.4-.61.4-.77-.03-1.63-.34-.68-.43-1.37-.31-2.38.09-.78.12-1.43.05-1.43-.23,0-1.52,1.41-1.69,1.84-.17.45-2.31.96-2.78.67-.41-.26-2.02-3.78-2.54-5.58-.45-1.55-.45-1.65.05-2.02.85-.62,2.91-.78,3.97-.31.52.23,1.27.48,1.67.57.53.11.88.51,1.27,1.48.37.92.65,1.25.87,1.07.18-.14.73-.33,1.21-.42.48-.09,1.39-.29,2.02-.45.95-.25,1.33-.2,2.26.27.61.31,1.12.7,1.12.87s.35.64.77,1.07c.71.71.74.84.41,1.76-.2.54-.27,1.07-.17,1.18.35.35,1.18-.44,1.33-1.27.09-.5.43-.98.85-1.19.39-.19.82-.56.97-.82.18-.32.46-.41.9-.27.61.19.62.18.12-.37-.28-.31-.51-.67-.51-.8s-.39-.59-.87-1.04c-.92-.86-1.04-.86-5.89-.21-.27.04-.5-.03-.51-.15,0-.12-.53-.71-1.15-1.31-.62-.6-1.22-1.39-1.33-1.75-.12-.4-.43-.66-.79-.66-.48,0-.56.13-.42.69.15.59.01.75-.98,1.14-1.64.64-3.44.05-5.53-1.81-1.37-1.23-1.53-1.48-1.2-1.88.21-.25.56-.46.78-.46.46,0,.54-.75.11-1.02-.52-.32-.33-1.85.27-2.17.37-.2.5-.5.4-.88-.1-.4-.01-.59.29-.59.25,0,.65-.08.91-.18.29-.11.46-.02.46.26,0,.74.8,1.22,1.31.8.6-.5.55-1.19-.11-1.36-.35-.09-.5-.33-.41-.66.08-.3-.06-.59-.33-.69-.25-.1-.46-.49-.46-.87s-.26-.92-.57-1.21c-.54-.49-.6-.49-1.38.07-.86.61-3.26,1.51-4.11,1.54-.39.02-.35.09.16.34.36.17.66.43.66.56s.25.25.55.25.71.19.9.43c.28.34.26.52-.11.9-.61.61-.59.87.15,1.56.75.7.56,1.38-.48,1.78-.67.25-.73.4-.56,1.31.19.99.16,1.02-.7,1.02-.8,0-.98-.18-1.79-1.83-.73-1.48-.92-2.25-.97-3.97-.05-1.88,0-2.15.47-2.22.85-.13.93-.4.29-.85-.86-.6-1.55-2.23-1.55-3.65,0-.88-.2-1.47-.73-2.09-.5-.6-.73-1.22-.73-1.99,0-1.49.45-1.71.91-.44.2.56.44,1.02.53,1.02.09,0,.64-.37,1.23-.82.79-.6,1-.92.81-1.23-.15-.23-.27-.89-.27-1.46,0-1.46-.23-1.55-1.38-.55-.55.48-1.12.8-1.27.7-.43-.27-.32-3.16.16-4.32.24-.58.44-1.43.44-1.91,0-1.26.28-1.78.98-1.82.49-.03.52-.06.11-.17-.28-.07-.51-.35-.51-.62,0-.27-.21-1.41-.47-2.53-.46-1.96-.45-2.13.11-4.19.43-1.57.52-2.39.33-3.06-.54-1.89-.31-4.2.61-6.11.82-1.69.85-1.91.58-3.55-.61-3.71-.18-6.42,1.13-7.12.59-.32.59-.32-.11-1.35-.88-1.29-1.2-3.33-.77-4.78.18-.6.33-1.44.33-1.87,0-.84.41-1.02.79-.34.2.36.44.33,1.62-.24l1.38-.67-.73-.69c-.4-.38-.73-.86-.73-1.07,0-.45-.47-.51-.73-.09-.45.74-.73.14-.73-1.6s.12-2.08,1.07-3.56c.86-1.34,1.12-1.58,1.35-1.22.25.4.38.4,1.26,0,1.1-.5,1.2-.98.55-2.54-.35-.83-.55-1-1.02-.85-1.22.39-.55-1.61,1.15-3.41.65-.69,1.18-1.35,1.18-1.48s.34-.36.75-.51c.59-.22.73-.46.67-1.09-.05-.44.02-1.35.15-2.02.2-1.03.49-1.42,1.89-2.48,1.65-1.25,1.66-1.26,4.13-1.26h2.48v.92c0,.51.08,1,.18,1.1.15.15,1.31-.34,3.76-1.57.71-.36.51-1.28-.38-1.71-1.22-.58-.87-1.21,1.26-2.28,1.53-.76,2.31-.96,4.06-1.04,2.1-.09,2.18-.07,2.34.63.17.71.18.71.57-.23.43-1.05,1.61-1.8,2.81-1.8.64,0,.72-.07.44-.41-.27-.33-.1-.89.81-2.7,1.36-2.69,3.27-4.69,4.56-4.77,1.48-.09,1.62-.02,2.06,1.04l.43,1.03.87-.62c1.01-.72.99-.65.42-1.75l-.44-.85-1.05.5q-1.05.5-1.74-.31c-.87-1.01-.89-1.92-.07-2.96.68-.87,2.63-1.88,3.63-1.89.72,0,3.56-1.75,3.59-2.21,0-.17.47-.74,1.02-1.28.55-.53,1.15-1.34,1.34-1.8s.56-.88.82-.96c.26-.07,1.46-.35,2.67-.62,2.56-.57,4.51-1.49,5.11-2.39.23-.35,1.05-1.07,1.81-1.6,1.34-.93,1.47-.96,3.79-.86,2.29.1,2.5.05,4.49-.98,1.88-.97,2.24-1.06,3.57-.89,2.19.28,3.33.71,3.53,1.35.18.55.21.55,1.11.05.51-.28.98-.55,1.05-.59.07-.04-.03-.23-.22-.42-.88-.88.06-2,3.03-3.58,1.16-.62,1.64-.71,2.87-.56.81.1,1.9.3,2.41.46.75.23,1.16.16,2.19-.36,1.91-.98,4.88-.93,6.76.11,1.1.61,1.54.72,1.97.49.5-.27.52-.37.15-1.07-.37-.7-.54-.77-1.87-.7-1.07.06-1.63-.06-2.08-.44-.83-.71-.78-.94.56-2.34,1.5-1.57,2.18-1.79,3.04-.98l.67.63,1.06-1.23c.58-.68,1.06-1.34,1.06-1.47s.4-.44.89-.69l.89-.46-.59-.74c-.54-.69-.56-.82-.15-1.79.6-1.43.89-1.73,2.08-2.12,1.46-.48,2.85-.17,4.69,1.05l1.59,1.05,2.37-.2c2.51-.21,4.01.15,5.77,1.36.57.4,1.31.53,2.87.53,1.85,0,2.3.12,3.94,1.03,1.01.57,2,1.22,2.2,1.46.26.31,1,.43,2.75.43,2.24,0,2.48.06,3.76.97.75.53,2.08,1.86,2.95,2.96,1.38,1.74,4.56,4.24,5.38,4.24.13,0,.6.28,1.03.62.72.57.89.59,1.92.25,1.43-.47,2.78-.25,5.09.83,1.39.65,1.87,1.04,2.02,1.62.16.65.28.72.76.47.31-.17,1.35-.38,2.3-.48,1.62-.17,1.79-.13,2.46.6.41.44,1.13.83,1.67.9,1.05.13,1.53.64,1.25,1.32-.19.45-.17,2.07.03,2.27.06.06.55-.36,1.08-.95.84-.91,1.2-1.08,2.58-1.2.89-.08,2.25.02,3.06.23,1.25.33,1.55.55,2.14,1.62.38.68.81,1.24.97,1.24s.71.32,1.23.72c.55.42,1.81.9,3.04,1.16,1.15.24,2.88.77,3.84,1.17.96.4,2.2.73,2.76.73s1.52.18,2.12.4c2.41.88,9.34,1.27,10.95.61.29-.12.5-.1.48.04-.29,1.6.82,2.49,2.32,1.87.51-.21.91-.62.96-.98.24-1.64,5-.63,6.37,1.35.37.53,1.39,1.3,2.41,1.8,1.47.73,1.9,1.12,2.54,2.33.58,1.09,1.1,1.62,2.06,2.1.71.35,1.55.65,1.87.66.65.02,4.52,2.51,4.52,2.9,0,.14.6.82,1.33,1.52.73.7,1.52,1.74,1.75,2.3.25.62.88,1.31,1.57,1.74.63.39,1.3,1.07,1.48,1.5.46,1.11,1.19,1.69,3.04,2.44,1.5.61,1.71.63,3.43.26,1.57-.34,2.02-.33,3.16.04.74.24,1.72.81,2.19,1.26,1.08,1.05,2.31,1.68,3.77,1.94,1.6.28,3.3,1.31,4.74,2.87.67.73,1.91,1.78,2.75,2.35,3.68,2.48,5.84,4.82,7.14,7.77.32.72,1.03,1.92,1.57,2.67.54.74,1.51,2.18,2.14,3.19.63,1.01,2.45,3.1,4.03,4.64l2.88,2.8-.21,2.62c-.25,3.15.21,5.06,1.71,7.16.54.76,1.08,1.91,1.18,2.56.13.8.55,1.58,1.32,2.41.85.93,1.32,1.84,1.89,3.72.42,1.37.76,2.7.76,2.95s.57,1.3,1.26,2.32c1.4,2.07,4.28,7.66,4.28,8.31,0,.23-.32.9-.71,1.47-1.17,1.72-.55,2.34,3.05,3.02,2.23.42,3.14.83,5.1,2.31.8.6,1.93,1.18,2.5,1.28.58.1,1.32.48,1.66.84.71.76,1.8,3.04,1.81,3.8,0,.29-.62,1.48-1.4,2.65-.77,1.17-1.77,3.13-2.22,4.36-.45,1.23-.93,2.3-1.08,2.39-.48.29-1.13,2.21-1.13,3.31,0,.69.31,1.56.87,2.45.48.76.87,1.74.87,2.17,0,.9-.88,3.86-1.54,5.16-.24.48-.53,1.66-.64,2.62-.24,2.14-.78,4.04-1.58,5.63-.36.7-.61,1.75-.61,2.53,0,1.8-.59,3.09-2.29,5-.79.88-2.18,3.05-3.1,4.82-.92,1.77-2.04,3.63-2.49,4.15-.45.51-1.17,1.8-1.59,2.86-.47,1.17-1.44,2.72-2.47,3.94-.93,1.11-2.12,2.86-2.64,3.9-.52,1.03-1.57,2.93-2.34,4.21-.8,1.33-1.73,3.43-2.17,4.88-.74,2.47-.82,2.59-2.52,3.9-2.01,1.55-2.05,1.87-.51,4.15,1.26,1.86,1.36,2.75.45,3.67-.41.41-1.02.75-1.35.75s-.88.33-1.23.73c-.35.4-.94.73-1.31.73-.56,0-.68.15-.68.87s.2.97,1.09,1.43c1.61.82,2.21,1.62,2.17,2.85-.06,1.47-1,2.43-2.4,2.43-.6,0-1.24-.19-1.44-.43-.2-.24-.47-.37-.6-.29-.13.08-.32.01-.42-.15-.1-.16-.71-.3-1.35-.3-1.34,0-2.94,1.05-3.62,2.37-.57,1.1-.56,3.43.02,3.65.76.29.47.93-.51,1.13-.52.11-1.21.43-1.53.71-1.1.96-2.32.95-4.42-.04-1.86-.88-1.95-.89-2.9-.44-1.05.5-1.18.9-.66,2.03.22.47.5.66.84.57.29-.08.82.02,1.19.22.59.32.74.27,1.28-.41.76-.95,1.26-.98,1.48-.08.12.48.51.79,1.24,1.02.59.18,1.59.8,2.22,1.39l1.15,1.06-.93.48c-1.02.53-2.19,2.49-1.94,3.27.17.53-.83,1.42-1.59,1.42-.23,0-.72.27-1.08.61l-.65.61.59,1c.42.71.54,1.27.41,1.94-.1.52-.21,1.34-.25,1.82-.07.87-.08.87-1.71.8-1.88-.08-4.02-.93-4.56-1.81-.48-.78-1.06-.75-2.52.1-.66.38-1.61.78-2.13.9-1.21.26-5.35-.43-5.54-.92-.17-.43-1.54-.52-1.54-.1,0,.15.15.61.33,1.01.52,1.13-.16,3.05-1.69,4.8-1.3,1.48-1.32,1.49-3.04,1.49-1.87,0-3.51-.54-4.53-1.5-.61-.57-.68-.58-1.46-.11-.79.47-.82.57-.83,2.8v2.31s.8,0,.8,0c.62,0,.81-.14.81-.59,0-.57,1.5-1.74,2.24-1.74.71,0,2.07,1.47,2.21,2.39.21,1.45-.02,1.87-1.43,2.59-1.02.52-1.42.6-1.8.35-.27-.18-.45-.49-.4-.69.05-.2,0-.7-.09-1.09-.14-.54-.26-.63-.51-.38-.18.18-.62.33-.97.33s-1.03.17-1.52.37c-.87.36-.87.38-.35,1.02.29.36.7.66.92.66.21,0,.78.33,1.26.72.78.64.82.75.39,1.08-.39.3-.44.64-.26,1.76.29,1.81.23,1.76,2.4,1.93.78.06,2.34,1.52,2.14,2.01-.24.63.63,1.49,1.33,1.31.32-.08.77-.53,1.01-.99.34-.66.63-.84,1.39-.84.52,0,1.11.16,1.3.35.52.52.43,1.62-.16,1.96-.44.26-.45.34-.08.58.36.24.35.31-.12.49-.36.14-.67.04-.91-.3-.31-.43-.54-.46-1.44-.21-.78.21-1.23.2-1.62-.05-.44-.27-.64-.25-1,.11-.41.41-.37.56.36,1.6,2.25,3.18,1.8,4.25-1.11,2.61-3.21-1.8-3.31-1.84-4.01-1.57-.38.14-1.03.24-1.46.22-.42-.02-1.81.12-3.08.31-2.3.35-4.08.22-4.75-.34-.2-.16-.52-.23-.73-.16-.99.35-2-1.32-1.02-1.7.58-.22.53-2.4-.1-4.32-.31-.95-.57-2.01-.58-2.34,0-.33-.33-1-.72-1.47l-.71-.86-1.2.68c-1.08.61-1.44.66-3.58.5-1.31-.1-2.84-.05-3.4.1-4.37,1.22-4.5,1.24-6.65,1.04-1.79-.17-2.19-.3-2.31-.76-.22-.83-1.2-.73-1.04.1.16.83-.77,1.7-2.54,2.38-1.63.63-2.04.96-2.04,1.65,0,.62-1.02,1.26-1.63,1.03-.23-.09-.41-.36-.41-.61,0-.3-.28-.45-.85-.45-.47,0-1.06-.21-1.32-.47-.4-.4-.6-.42-1.41-.1-1.34.53-1.96,1.14-1.96,1.92,0,.87-.67.89-1.24.03-.37-.56-.5-.6-.91-.26-.26.22-.84.43-1.28.48-2.64.28-3.39.91-1.65,1.41,1.33.38,3.33,1.41,3.33,1.7,0,.15.45.45.99.68.78.33.96.54.84,1.01-.21.8.07.74,1.36-.28.6-.48,1.45-1,1.89-1.17.74-.28.78-.39.6-1.47-.22-1.29.03-1.45,1.12-.73.36.24,1.05.43,1.52.43,1.7,0,3.36.38,3.71.85.25.34.85.49,2.06.51,1.76.04,1.66-.02,3.74,2.11.21.22.91.92,1.55,1.55l1.17,1.16,2.19-.17c1.57-.12,2.42-.34,3.02-.79.64-.48.89-.53,1.07-.24.37.59.01,1.1-.91,1.3-.47.1-.85.29-.85.42s-.29.31-.65.4c-.87.23-.44.57,1.43,1.17,2.01.64,2.13.62,2.13-.35,0-1.22,1.2-2.06,4.23-2.97.64-.19,1.63-.56,2.19-.81,1.16-.53,5.37-.64,9.91-.26,2.93.24,5.35,1.12,7.39,2.67.54.41,1.23.75,1.53.75.53,0,1.87.72,3.37,1.81.38.27,1.43.59,2.33.69,1.4.16,1.72.11,2.21-.39.88-.88,3.24-1.7,3.82-1.33.87.55.72,1.21-.38,1.67-.57.24-1.04.51-1.04.6,0,.42,1.89,2.19,2.34,2.19.27,0,.86.28,1.3.63.67.53.77.79.64,1.6-.09.54-.05.97.08.97.44,0,.96-.86.79-1.31-.22-.58.25-.56,1.3.06.92.54,1.1,1.17.41,1.44-.45.17-.62.98-.2.98.13,0,.54.41.9.9.78,1.05.6,1.36-1.03,1.73-1.66.38-2.25.12-2.04-.92.17-.83.15-.85-1.17-.85-.74,0-1.82.12-2.4.27-5.15,1.34-5.12,1.34-8.33.42-.97-.27-2.05-.35-3.28-.22-2.39.25-5.08-.31-5.95-1.24-.93-.99-1.73-.86-3.19.49-.99.91-1.44,1.14-1.97,1.01-.44-.11-.62-.06-.5.13.1.17.35.3.55.3.51,0,1.93,1.54,1.93,2.09s-1.3,1.9-2.36,2.44c-.57.3-2,.38-5.61.34-4.22-.05-5.1-.15-6.82-.74h0Zm12.4-23.59c-.06-.29-.36-.51-.7-.51s-.82-.18-1.09-.4c-.42-.34-.48-.34-.48.06,0,.55,1.09,1.36,1.84,1.36.36,0,.51-.17.44-.51h0Zm-46.58-1.68c.3-.36.28-.44-.11-.44-.26,0-.47.2-.47.44s.05.44.11.44.27-.2.47-.44Zm-90.95-2.48c0-.16-.14-.29-.31-.29s-.23.13-.13.29c.1.16.24.29.31.29s.13-.13.13-.29Zm7.14-2.33c.1-.16-.03-.29-.29-.29s-.39.13-.29.29c.1.16.23.29.29.29s.19-.13.29-.29Zm133.5-1.27c.4-.29.45-.45.18-.62-.79-.49-3.46-1.02-5.1-1.03-1.9,0-2.79-.51-2.79-1.6,0-.35-.33-.94-.73-1.32l-.73-.68-1.43.67-1.43.67.38.91c.28.68.7,1.02,1.65,1.35.7.24,1.43.54,1.63.67.2.13,1.18.2,2.19.17,1.32-.04,2.19.11,3.14.54,1.57.72,2.33.78,3.05.26Zm-7.01-11.82c.19-.31-.54-.98-.79-.73-.23.23.07.99.39.99.13,0,.32-.12.4-.26h0Zm30.79-7.64c.58-1.14.58-1.21.09-1.57-.74-.54-1.23-.24-1.44.89-.39,2.07.43,2.48,1.35.68h0Zm-55.72-7.8c-.43-.15-.65.15-.4.55.16.25.27.24.46-.05.14-.23.12-.44-.05-.5Zm.82-.8c-.1-.1-.35-.11-.56-.02-.23.09-.16.16.18.18.31.01.48-.06.38-.15h0Zm4.45-6.19c0-.38-.35-.63-.63-.46-.3.19-.04.7.35.7.15,0,.27-.11.27-.24h0Zm4.96-.63c0-.16-.14-.29-.31-.29s-.23.13-.13.29.24.29.31.29.13-.13.13-.29Zm-158.33-1.33c.19-.41.46-.67.62-.57.15.09.48-.22.72-.69.25-.47.73-.95,1.08-1.06.54-.17.57-.24.17-.46-.44-.25-.82-1.17-1.21-2.95-.13-.59-.35-.8-.84-.8-.78,0-1.36.5-1.36,1.19,0,.27-.27.67-.6.89-.57.38-.58.45-.15,1.47.25.59.58,1.16.75,1.26.17.11.22.66.11,1.33-.21,1.31.2,1.54.72.4Zm151.35-1.38c.17-1.51.12-1.7-.45-1.48-.22.08-.31.4-.22.75.1.38-.03.74-.33.96-.59.43-.32,1.37.36,1.24.33-.06.52-.51.63-1.48h0Zm1.73,1.27c0-.34-.57-.71-.78-.5s.16.78.5.78c.15,0,.27-.12.27-.27Zm-147.5-1.91c0-.27-.28-.44-.73-.44-.71,0-.93.28-.53.68.37.37,1.26.19,1.26-.24Zm146.63-1.6c0-.16-.13-.29-.29-.29s-.29.13-.29.29.13.29.29.29.29-.13.29-.29Zm-85.12-.58c0-.16-.14-.29-.31-.29s-.23.13-.13.29.24.29.31.29.13-.13.13-.29Zm-49.06-2.23c.21-.55-.6-1.27-1.42-1.27-.72,0-.66.52.13,1.18.81.68,1.06.7,1.3.09h0Zm-6.8-.25c.09-.24.35-.44.58-.44s.6-.29.84-.64c.32-.48.72-.64,1.64-.66.67,0,1.21-.12,1.21-.26,0-.44-.77-1.02-1.48-1.12-.59-.08-.71-.27-.72-1.12,0-.56-.12-1.32-.24-1.68-.26-.77.49-3.33,1.14-3.87.33-.27.52-.26.89.04.4.33.53.3.88-.18.36-.49.49-.51,1.02-.18.4.25.71.28.89.1.4-.4.13-1.39-.35-1.28-.82.18-1.78-.27-2.05-.97-.29-.77-1.11-.95-1.69-.37-.27.27-.35.21-.35-.29,0-.73-.14-.76-1.41-.32-1.2.42-1.2,1.23,0,2.34.85.8.88.89.44,1.38-.58.64-.59.88-.07,1.48.49.56.13,1.77-.54,1.77-.25,0-.45.11-.45.25,0,.39-2.88,1.79-3.67,1.79-1.4,0-.69.88.85,1.06.49.06,1.12.32,1.42.59.57.52.72,1.99.24,2.29-.16.1-.22.31-.13.45.26.42.93.32,1.11-.17h0Zm47.12.15c0-.16-.14-.29-.31-.29s-.23.13-.13.29.24.29.31.29.13-.13.13-.29h0Zm103.93-.85c-.29-.46-.75-.09-.54.45.11.29.27.35.46.16.16-.16.2-.43.09-.61h0Zm-158.74-3.15c.4-.36,1.02-.65,1.37-.66h.64s-.72-.72-.72-.72c-.77-.77-.98-2.35-.35-2.56.27-.09.29-.33.07-.97-.36-1.03-1.12-1.12-1.26-.14-.14,1-1.44,2.61-2.27,2.82l-.69.17.92.8c.8.7.89.93.73,1.81-.23,1.21.12,1.71.54.77.16-.37.62-.97,1.03-1.32h0Zm151.36,1.47c.12-.07.22-.22.22-.33,0-.27-1.86-.84-2.29-.7-.37.12-.46,1.01-.13,1.34.19.19,1.72-.02,2.2-.3h0Zm-1.09-2.72c.1-.16.04-.29-.13-.29s-.31.13-.31.29.06.29.13.29.21-.13.31-.29Zm3.94-1.17c0-.16-.13-.29-.29-.29s-.29.13-.29.29.13.29.29.29.29-.13.29-.29Zm-151.73-.58c0-.21-.16-.44-.36-.51-.22-.07-.36.13-.36.51s.15.58.36.51c.2-.07.36-.3.36-.51Zm17.5-.46c.82-.89,1.04-1,1.55-.73.33.17.87.32,1.2.32s.69.2.78.44c.22.57.81.56,1.3-.03.33-.4.31-.53-.17-.87-.31-.22-.98-.41-1.51-.41-.72,0-1.11-.21-1.6-.87-.36-.48-.83-.87-1.05-.87-.26,0-.34-.19-.22-.56.22-.68-.3-1.08-.55-.43-.11.28-.36.4-.64.29-.51-.19-1.85.89-1.86,1.51,0,.2.12.6.26.87.15.28.43.93.62,1.45.19.52.48.95.64.95s.72-.47,1.25-1.05h0Zm149.98.46c0-.16-.14-.29-.31-.29s-.23.13-.13.29.24.29.31.29.13-.13.13-.29Zm-7-1.95c0-.21-.12-.38-.26-.38-.31,0-.62.72-.6,1.41,0,.42.07.41.44-.08.24-.31.43-.74.43-.95Zm-11.37.78c0-.16-.06-.29-.13-.29s-.21.13-.31.29-.04.29.13.29.31-.13.31-.29Zm9.91-.71c0-.51-.48-.85-.86-.61-.39.24-.04,1.03.46,1.03.22,0,.41-.19.41-.42h0Zm-9.62-1.1c0-.34.22-.86.49-1.16.37-.41.41-.62.15-.88-.5-.5-.83,0-1.06,1.63-.14.98-.11,1.36.11,1.22.17-.11.31-.47.31-.81h0Zm-112.24-.67c.38.24.96-.96.79-1.63-.09-.35,0-.55.27-.55.23,0,.41.13.41.29,0,.54,1.13.29,1.31-.29.1-.32.31-.58.46-.58s.27.26.27.58.12.58.27.58.31.28.36.63c.13.85.82,1.04,1.02.27.09-.34.28-.61.42-.61s.26-.21.26-.47c0-.28-.16-.41-.41-.31-.25.09-.47-.08-.56-.44-.09-.33-.28-.51-.44-.42s-.36-.04-.46-.29c-.12-.32-.39-.41-.86-.3-.52.13-.83-.03-1.33-.72-.36-.49-.57-.98-.46-1.09s.37.05.59.34c.22.3.54.45.73.33.23-.14.13-.43-.32-.9-.65-.69-1.43-.93-1.43-.44,0,.14-.39.33-.87.43-.62.12-.87.34-.87.75,0,.8-.5,1.03-.73.32-.2-.62-.4-.7-1.16-.41-.43.17-.43.23.02.73.47.52.46.58-.04,1.13-.47.52-.49.67-.12,1.38.73,1.44,1.51,2.09,2.09,1.78.29-.15.65-.21.8-.11h0Zm121.7-.17c-.09-.15-.29-.2-.45-.11s-.2.29-.11.45.29.2.45.11.2-.29.11-.45h0Zm-158.33-1.43c.75,0,1.15-.17,1.36-.56.46-.86.39-1.08-.72-2.19-.56-.56-1.02-1.22-1.02-1.47,0-.65-.52-.55-1.52.29-.55.46-1.08.67-1.42.57-.3-.09-.82-.02-1.16.16-.59.32-.59.36-.11.89.28.31.69.56.92.56s.67.6,1,1.34c.55,1.24.63,1.3,1.1.87.28-.25.99-.46,1.57-.46h0Zm178.16-1.48c-.09-.15-.29-.2-.45-.11s-.2.29-.11.45.29.2.45.11.2-.29.11-.45h0Zm-149.86-.56c.82-.97,1.21-1.09,1.46-.44.09.24.3.44.47.44.58,0,.29-.93-.56-1.78-.47-.47-.8-1.03-.72-1.24.26-.68-.41-1.94-1.04-1.94s-.76.3-.27.79c.18.18.24.47.13.64-.26.41-1.12.41-1.54-.02-.25-.25-.54-.25-1.18.02-.47.19-1.19.26-1.62.16-.58-.15-.77-.08-.77.24,0,.24.34.52.76.63.57.14.72.33.61.75-.12.48-.03.53.7.39.68-.14.84-.07.84.36,0,.61,1.1,1.88,1.63,1.88.2,0,.69-.39,1.1-.87h0Zm4.81-.69c-.44-.84-.39-.81-.93-.6-.62.24-.61.89.01,1.24.8.45,1.31.1.92-.64h0Zm-14.65-.66c.05-.92.37-1.27,1.16-1.27.74,0,1.86-.51,2.22-1.01.26-.36-.29-1.03-.85-1.03-.34,0-.39-.23-.24-1.02.17-.9.12-1.02-.4-1.02-.68,0-.73-.25-.25-1.31.23-.51.25-.84.04-1.05-.21-.21-.42-.02-.67.59-.2.49-.5.89-.66.89s-.22.34-.14.76c.11.58.01.8-.4.91-.31.08-.55.4-.55.72,0,.44-.12.53-.51.35-.82-.36-2.19-.31-2.33.09-.08.23.15.36.63.36s.75.16.75.44c0,.24.19.44.43.44.48,0,1.18,2.15.86,2.66-.12.19.02.27.35.21.31-.06.56-.37.58-.72h0Zm142.76-1.16l.82-.76-.82-.84c-.95-.97-.94-.96-1.64-.43-.46.35-.49.55-.21,1.59.37,1.39.73,1.47,1.85.43Zm-130.69-.41c0-.16-.19-.29-.42-.29s-.5.13-.6.29c-.1.16.09.29.42.29s.6-.13.6-.29Zm-20.79-.75c.24-.63-.37-1.23-.82-.79-.37.37-.14,1.24.33,1.24.17,0,.39-.21.49-.46Zm38.34-1.23l.78-.51-.7-.63c-.39-.34-.76-.53-.84-.41-.07.12-.53.16-1.02.09-.7-.1-.89-.02-.89.37s.16.46.73.32c.63-.16.73-.09.73.55,0,.87.18.9,1.22.22h0Zm-35.98-.44c.46-.36.18-1.67-.48-2.25-.74-.65-.94-1.41-.54-2.04.28-.44.28-.64,0-.92-.28-.28-.36-.21-.36.36,0,.78-2.11,2.78-2.61,2.47-.55-.34-1.76.19-1.76.77,0,.31-.15.84-.33,1.18q-.32.61.56-.02c.94-.67,1.52-.8,1.52-.35,0,.26,1.29.95,2.33,1.26.49.14,1.13-.03,1.67-.45h0Zm31.27-.39c0-.24-.13-.36-.29-.26-.16.1-.29.38-.29.62s.13.36.29.26c.16-.1.29-.38.29-.62Zm-42.85.05c0-.76,1.88-1.94,2.97-1.87,1.42.1,1.87-.25,1.23-.95-.28-.3-.73-.55-1.01-.55-.5,0-1.29-1.58-1.01-2.03.07-.12-.05-.46-.27-.77-.38-.52-.42-.52-.61-.04-.32.83-3.03,2.04-4.17,1.86l-.98-.16.72.64c.39.35,1.09.84,1.56,1.09,1.11.59,1.71,1.81,1.28,2.61-.21.4-.22.59-.01.59.17,0,.3-.19.3-.42h0Zm13.41-.2c0-.16-.13-.21-.29-.11-.16.1-.29.31-.29.47s.13.21.29.11c.16-.1.29-.31.29-.47Zm175.34.33c.1-.16.04-.29-.13-.29s-.31.13-.31.29.06.29.13.29.21-.13.31-.29Zm-150.16-2.27c.08-.13.03-.42-.12-.65-.2-.32-.34-.34-.6-.08-.19.19-.25.48-.14.65.23.37.65.41.85.08h0Zm-30.13-2.17c0-.16-.19-.13-.44.07-.24.2-.44.49-.44.65s.19.13.44-.07c.24-.2.44-.49.44-.65h0Zm12.24-1.13c0-.19.27-.25.67-.16.62.15.66.09.55-.83-.06-.55-.3-1.15-.53-1.34-.3-.25-.33-.44-.09-.73.38-.46.12-.99-.48-.99-.23,0-.42.26-.42.58s-.1.6-.22.63c-.96.2-2.07.16-2.6-.1-.67-.33-1.55-.15-1.55.31,0,.15.36.36.8.47.75.18,1.08.43,2.55,1.87.65.64,1.31.79,1.31.3h0Zm-6.85-2.79c1.16-.38,1.22-.99.18-1.68-1.01-.67-1.63-2.31-1.06-2.79.29-.24.3-.51.06-1.16-.28-.74-.24-.91.39-1.44.39-.33,1.06-.6,1.48-.6.45,0,1.2-.41,1.82-.98,1.17-1.07,1.42-1.65.41-.94-.91.64-1.39.56-1.39-.22,0-.37-.16-.83-.35-1.02-.26-.26-.27-.43-.01-.69.23-.23.25-.5.05-.87-.38-.71-1.04-.69-1.23.04-.09.34-.4.58-.75.58-.33,0-.71.21-.86.47-.24.43-.34.43-1.17,0-.5-.26-1.37-.47-1.94-.47-1.83,0-2.6-1.59-2.51-5.17.02-.82-.31-.83-1.03-.04-.36.4-.56,1.05-.56,1.82,0,1.15-.05,1.21-.95,1.3-.78.07-.95.22-.95.78,0,.38.13.77.28.87.15.09.2.36.11.6-.09.24,0,.43.18.43.21,0,.32.38.29.95-.08,1.45-.04,1.52.61.93.48-.44.56-.75.41-1.65-.15-.9-.1-1.11.28-1.11.25,0,.74.27,1.07.61.5.5.91.6,2.26.54,1.8-.08,2.67.17,2.67.74,0,.2.19.53.42.72.67.56.31,4.63-.49,5.48-.59.63-.59.67-.08,1.05.39.28.44.45.19.61-.19.12-.51.08-.72-.09-.49-.41-2.08.03-2.08.57,0,.23.18.38.4.33.78-.17,1.55.87,1.37,1.85-.23,1.25.02,1.37,1.25.6.58-.37,1.45-.8,1.94-.95h0Zm9.46-.02c0-.12-.2-.47-.44-.79-.5-.66-1.14-.27-.84.52.18.47,1.3.71,1.28.27Zm-19.94-1.89c.19-.6,1.18-1.2,1.68-1.01.22.08.33-.19.31-.78-.02-.67-.16-.89-.51-.83-.37.07-.44-.09-.33-.73.16-.9-.51-2.01-1.02-1.69-.18.11-.65.71-1.04,1.34-.48.77-.93,1.14-1.37,1.15-.49,0-.55.07-.25.26.44.28,1.19,2.17,1.19,3.02,0,.44.09.46.59.15.32-.2.66-.6.75-.88h0Zm27.96-2.55c-.1-.56-.42-1.28-.71-1.6-.28-.32-.88-1.11-1.32-1.75l-.8-1.17.18,1.24c.14.99.09,1.24-.26,1.24-.24,0-.44.13-.44.29s.27.29.6.29c.88,0,1.4.66,1.92,2.4.43,1.44.48,1.49.73.81.15-.4.19-1.19.09-1.75h0Zm151.15,1.6c0-.24-.2-.44-.44-.44-.46,0-.58.34-.24.68.34.34.68.21.68-.24h0Zm-160.33-.45c0-.15-.13-.27-.29-.27s-.29.2-.29.45.13.37.29.27c.16-.1.29-.3.29-.45Zm.44-1.44c.1-.16.49-.29.86-.29s.76-.2.85-.44c.09-.24.04-.44-.11-.44-.6,0-.24-.61.52-.9.63-.24.98-.2,1.62.18.45.27.91.4,1.02.29.25-.25-1.13-1.29-1.53-1.15-.39.14-.81-.16-1.21-.9-.52-.95-1.65-1.19-2.86-.61-.93.44-1.03.59-.86,1.29.11.43.34.88.51,1,.23.15.23.36-.01.75-.22.35-.24.71-.06,1.03.3.54.99.65,1.27.2h0Zm-18.22-3.37c0-.25-.13-.37-.29-.27-.16.1-.29.3-.29.45s.13.27.29.27.29-.2.29-.45Zm14.87-.69c0-.34-.57-.71-.78-.5-.21.21.16.78.5.78.15,0,.27-.12.27-.27Zm174.32-.6c0-.16-.13-.29-.29-.29s-.29.13-.29.29.13.29.29.29.29-.13.29-.29Zm-198.23-2.18c.2-.24.81-.51,1.37-.62.71-.13,1.09-.4,1.29-.91.22-.57.41-.69.93-.54.36.1,1.18.25,1.82.34,1.01.13,1.24.05,1.69-.59.29-.41.45-.87.36-1.02-.24-.39-1.03-.03-1.03.46,0,.28-.36.41-1.15.41-1,0-1.28-.16-2.11-1.2-.69-.86-.96-1.49-.96-2.26,0-.87-.11-1.06-.58-1.06s-.58.19-.58,1.16c0,1.16,0,1.16-1.41,1.42-.95.18-1.64.15-2.13-.07-.4-.18-1.03-.33-1.41-.33-.49,0-.99-.41-1.74-1.42-.57-.78-1.05-1.64-1.05-1.89s-.13-.47-.29-.47-.29.17-.29.38c0,.57-1.62,1.66-2.47,1.66-.67,0-.73.08-.55.8.11.44.5,1.17.88,1.63.38.45.68,1.01.68,1.24,0,.6.3.51,1.19-.34.7-.67,1.04-.76,2.88-.77,2.65-.02,3.42.59,3.69,2.92.19,1.59.38,1.8.97,1.09h0Zm20.7-2.6c0-.06-.2-.19-.45-.29-.26-.1-.38-.05-.27.11.17.28.73.41.73.17h0Zm10.34-.99c.26-.58.72-.79,1.44-.66.46.09-.44-.82-.98-1-.28-.09-.66-.49-.84-.89-.39-.87-.84-.9-1.76-.13-.63.52-.66.66-.33,1.45.2.48.49.87.65.87s.21.32.11.7c-.16.65-.11.69.62.49.44-.12.93-.5,1.09-.85Zm112.09.4c0-.23-.1-.48-.23-.56-.37-.23-1.03.3-.81.66.29.47,1.04.4,1.04-.1h0Zm-122.15-1.91c.18,0,.23-.29.13-.69-.12-.47-.03-.74.29-.87.58-.22.58-.61,0-1.19-.68-.68-1.09-.56-.93.28.09.45-.02.82-.27.97-.31.17-.36.55-.21,1.51.17,1.08.24,1.18.44.64.13-.35.37-.64.54-.64h0Zm188.32.87c0-.16-.14-.29-.31-.29s-.23.13-.13.29.24.29.31.29.13-.13.13-.29Zm-37.49-.76c.22-.57-.02-.99-.54-.99s-.84.92-.39,1.21c.54.35.73.3.93-.22Zm66.35-.99c0-.16-.13-.29-.29-.29s-.29.13-.29.29.13.29.29.29.29-.13.29-.29Zm-225.98-1.04c.36-.25.65-.64.65-.87,0-.25.29-.42.73-.42.8,0,1.01-.77.38-1.4-.27-.27-.25-.43.11-.71.69-.55.89-1.38.38-1.57-.24-.09-.43-.35-.43-.57,0-.77-.73-.4-1.31.67-.75,1.38-1.12,1.48-2.08.51-.7-.7-.83-.73-1.12-.33-.21.29-.57.4-.97.29-1.12-.29-.57,1.57.66,2.22.43.23,1.05.91,1.4,1.52.71,1.26.74,1.27,1.62.66h0Zm-8-3.48c-.07-.75.41-1.03,1.42-.82.63.13.82.05.82-.31,0-.31-.25-.47-.71-.47-.87,0-1.1-.33-1.1-1.62,0-1.1-.34-1.3-.79-.46-.16.3-.69.71-1.18.91-1.04.43-1.06.61-.3,2.28.46,1.02.7,1.24,1.23,1.17.46-.06.64-.27.61-.67h0Zm-9.53-1.32c.04-.84.84-1.46,1.87-1.46,1.13,0,1.23-.27.42-1.23-.4-.47-.64-.99-.54-1.15.21-.34-.86-1.41-1.4-1.4-.21,0-1.02.41-1.81.91-1.19.75-1.35.95-.96,1.17.66.37,1.48,2.18,1.25,2.76-.21.55.34,1.35.82,1.19.18-.06.34-.41.36-.79h0Zm150.67,0c.1-.16-.03-.29-.29-.29s-.39.13-.29.29.23.29.29.29.19-.13.29-.29Zm-144.73-.87c0-.16-.2-.29-.44-.29s-.44.13-.44.29.2.29.44.29.44-.13.44-.29Zm173.39-.06c.54-.54.42-1.11-.23-1.11-.43,0-.58.19-.58.73,0,.8.27.92.82.38h0Zm37.66-.23c0-.16-.14-.29-.31-.29s-.23.13-.13.29.24.29.31.29.13-.13.13-.29Zm-223.85-2.95c1.87.65,1.84.11-.05-.85-.75-.38-1.15-.78-1.15-1.16,0-.64-.57-.76-1.09-.24-.18.18-.83.42-1.43.51l-1.1.18,1.28,1.23,1.28,1.23.66-.62c.57-.54.78-.57,1.59-.29h0Zm215.25.62c-.1-.16-.3-.29-.45-.29s-.27.13-.27.29.2.29.45.29.37-.13.27-.29Zm-179.13-.87c0-.16-.2-.29-.45-.29s-.37.13-.27.29c.1.16.3.29.45.29s.27-.13.27-.29Zm207.84-.87c0-.16-.2-.29-.45-.29s-.37.13-.27.29c.1.16.3.29.45.29s.27-.13.27-.29Zm-215.86-.58c.1-.16-.06-.61-.35-.99-.42-.56-.84-.73-2.08-.8-.86-.05-1.6-.06-1.65,0-.14.14,1.09,1.38,1.74,1.75.72.41,2.09.45,2.33.06h0Zm-29-1.77c0-.15-.13-.27-.29-.27s-.29.2-.29.45.13.37.29.27c.16-.1.29-.3.29-.45Zm20.19.11c.12-.07.22-.3.22-.52s.2-.46.44-.56c.57-.22.56-.76-.04-1.2-.26-.19-.56-.85-.66-1.47-.19-1.19-.91-1.79-.91-.75,0,.33-.13.61-.29.61s-.29.21-.29.47c0,.38-.2.43-1.02.28-.98-.18-1.02-.16-1.02.7,0,.59.14.89.44.89.51,0,.58.46.11.75-.22.14-.1.39.36.74.64.49,1.87.52,2.66.05h0Zm7.8-1.11c-.21-.25-.43-.39-.51-.32-.16.16.6,1.04.77.88.06-.06-.05-.31-.26-.56Zm-17.45.15c.16,0,.2-.26.1-.58-.15-.48-.05-.58.56-.58.46,0,.75-.16.75-.42,0-.23.26-.5.58-.6.85-.27.72-.64-.45-1.19-1.17-.56-1.25-1.31-.15-1.48,1.03-.16,1.05-.26.2-1.27-.95-1.13-.96-1.56-.04-1.98.91-.41.91-.58-.02-1.94-.71-1.05-.78-1.9-.14-1.9.17,0,.3.25.3.55,0,.68.74,1,1.43.63.35-.19.63-.17.85.06.25.25.34.22.34-.13,0-.26-.2-.54-.44-.63-.24-.09-.44-.41-.44-.7s-.37-.75-.83-1.02c-.78-.46-.88-.46-1.82.04-.72.38-1.04.8-1.19,1.51-.21,1.02-.08,1.54.32,1.3.13-.08.31.4.4,1.07.12.89.05,1.3-.27,1.53-.38.28-.36.39.17.86.9.81.76,1.25-.35,1.1-.78-.11-.88-.06-.58.25.97,1.03-.16,1.69-1.89,1.1-.6-.2-1.22-.47-1.37-.6-.46-.38-1.33-.26-1.33.19,0,.23.36.59.8.8.44.21,1.06.87,1.38,1.47.33.62.8,1.09,1.09,1.09.34,0,.51.23.51.68,0,.83.27,1.14.81.93.22-.09.53-.15.69-.15h0Zm150.3-.75c-.28-.28-.83.17-.63.51.12.2.29.19.5-.02.17-.17.23-.39.13-.49h0Zm-146.55-1.12c0-.07-.13-.21-.29-.31-.16-.1-.29-.04-.29.13s.13.31.29.31.29-.06.29-.13Zm15.6-1.92c.23-.38-.41-1.21-.77-.99-.14.09-.26.41-.26.73,0,.6.71.78,1.03.26h0Zm9.08-.92c-.09-.23-.16-.16-.18.18-.01.31.06.48.15.38.1-.1.11-.35.02-.56h0Zm208.23-.82c0-.16-.13-.29-.29-.29s-.29.13-.29.29.13.29.29.29.29-.13.29-.29Zm-223.29-.46c0-.51-.63-.43-.81.12-.06.19.09.35.35.35s.46-.21.46-.46Zm-1.82-1.83c.59-.8.6-.88.14-1.89-.32-.71-.67-1.06-1.07-1.06-.76,0-2.49,1.05-2.49,1.5s.88,1.41,1.32,1.41c.2,0,.52.2.72.44.5.61.68.56,1.38-.4h0Zm-5.58-1.71c-.3-.3-.54.15-.3.54.18.3.25.3.35,0,.07-.2.04-.45-.05-.54h0Zm-1.78.21c.1-.16-.02-.29-.27-.29s-.45.13-.45.29.12.29.27.29.36-.13.45-.29Zm-20.26-3.81c0-.15-.2-.27-.44-.27-.45,0-.58.34-.25.67.23.23.69-.03.69-.4Zm13.48.03c-.36-.3-.66-.69-.66-.86,0-.43-.62-.39-1.24.09-.61.46-.68,1.18-.1.96.23-.09.78-.05,1.24.09,1.29.39,1.46.32.75-.27h0Zm-4.17-.73c.55-.66-.42-1.96-1.3-1.74-.37.09-.75.03-.86-.15-.24-.39-.74-.42-.74-.04,0,.15.36.45.8.67.56.28.78.59.73,1.04-.08.75.81.9,1.37.22h0Zm-8.22-1.66c.51-1.06-.23-2.59-1.26-2.59-.63,0-.71.13-.71,1.17,0,2.16,1.19,3.02,1.96,1.42h0Zm28.5-2.59c.1-.16.04-.29-.13-.29s-.31.13-.31.29.06.29.13.29.21-.13.31-.29Zm-17.18-2.83c-.1-.25.03-.78.29-1.17.44-.68.44-.7-.11-.4-.51.27-.56.23-.41-.34.09-.36.32-.78.51-.94.45-.38.21-2.84-.26-2.69-.18.06-.45.69-.6,1.4-.33,1.59-.34,1.61-.94,1.11-.45-.37-.47-.33-.29.42.12.49.07.99-.12,1.22-.25.3-.18.46.28.71.66.35.79,1.16.28,1.68-.18.18-.23.48-.11.67.31.51,1.7-1.06,1.47-1.66Zm1,1.08c0-.32-.13-.58-.29-.58s-.29.26-.29.58.13.58.29.58.29-.26.29-.58Zm7.6.13c.67-.34.81-.56.61-.92-.14-.26-.2-.71-.12-1.01.19-.74-.77-1.09-1.24-.45-.19.27-.56.48-.82.48s-.54.13-.63.28c-.25.41.73,2.02,1.25,2.05.05,0,.48-.2.96-.44h0Zm2.16-.13c-.1-.16-.31-.29-.47-.29s-.21.13-.11.29c.1.16.31.29.47.29s.21-.13.11-.29Zm-5.39-1.34c0-.51-.63-.43-.81.12-.06.19.09.35.35.35s.46-.21.46-.46Zm-2.98-2.11c.06-.19-.15-.35-.49-.35-.61,0-.79.31-.41.69.27.27.76.09.9-.34h0Zm-7.51-.49c0-.24-.13-.44-.29-.44s-.29.2-.29.44.13.44.29.44.29-.2.29-.44Zm-3.92-1.87c.01-.65-.07-1.19-.18-1.19-.67,0-1.64,2.5-1.05,2.71.72.26,1.21-.35,1.23-1.53h0Zm37.25,1.14c.42-.38-1.58-1.21-2.02-.85-.64.53.13,1.45,1.04,1.24.41-.1.85-.27.98-.39Zm-45.77-2.37c.37-.21.36-.37-.04-1.26-.52-1.15-1.12-1.29-2.1-.5-.53.43-.59.64-.34,1.09.17.31.48.98.68,1.5l.37.93.5-.76c.27-.42.69-.87.92-1Zm47.95.36c.33-.94.21-1.19-.58-1.19-.56,0-.64.31-.35,1.38.24.89.58.82.93-.19h0Zm-9.28-.33c0-.41-.15-.9-.34-1.09-.26-.26-.26-.52,0-1.09.44-.97.44-1.01-.17-1.01-.28,0-1.03.59-1.66,1.31-.63.72-1.38,1.31-1.67,1.31s-.53.19-.53.42c0,.68.59.85,1,.28.36-.5.4-.49.76.08.28.45.66.59,1.49.57,1-.03,1.12-.11,1.12-.78h0Zm2.48-1.18c.22-.69.03-1-.42-.72-.38.24-.41,1.32-.04,1.32.15,0,.36-.27.46-.6h0Zm-12.29-.29c1.51-1.19.63-2.73-1.37-2.41-1.01.16-1.6.79-1.05,1.12.15.09.28.48.28.86,0,1.12,1,1.32,2.15.42h0Zm3.1-.27c0-.16-.49-.28-1.09-.27-.88.02-.98.07-.51.27.81.35,1.6.35,1.6,0Zm-12.53-1.75c.22-.41.61-.58,1.32-.58,1.43,0,1.32-.53-.35-1.7-.57-.4-1-.53-1.11-.35-.1.16-.44.3-.76.3-.51,0-.56.14-.4,1.09.34,2.02.7,2.36,1.3,1.24h0Zm-8.36-2.95c.35-.18.66-.35.7-.38.17-.12-.77-2.35-.98-2.33-.14.01-.67.13-1.19.26-1.07.26-1.31,1.17-.4,1.46.3.1.62.43.7.75.17.66.31.69,1.17.24h0Zm1.95.04c0-.16-.13-.29-.29-.29s-.29.13-.29.29.13.29.29.29.29-.13.29-.29Zm35.27-.13c0-.07-.13-.21-.29-.31-.16-.1-.29-.04-.29.13s.13.31.29.31.29-.06.29-.13Zm-7.34-.77c-.06-.17-.23-.31-.38-.31s-.32.14-.38.31c-.06.17.11.31.38.31s.44-.14.38-.31Zm-1.98-.28c0-.16.35-.43.77-.59l.77-.29-.65-.7c-.77-.82-2.05-1.22-2.35-.73-.24.39.76,2.61,1.18,2.61.16,0,.28-.13.28-.3h0Zm-8.45-.98c0-.49-.79-.84-1.03-.46-.09.15-.09.41,0,.57.27.44,1.02.35,1.02-.11h0Zm-28.44-.22c.78-.36.93-.68.45-.97-.16-.1-.29-.49-.29-.87,0-.93-.29-1.06-1.32-.59-.47.21-1.11.47-1.41.57-.49.16-.42.3.58,1.18.62.55,1.16,1.01,1.19,1.01.03,0,.39-.14.8-.33h0Zm245.17-1.12c.1-.16.04-.29-.13-.29s-.31.13-.31.29.06.29.13.29.21-.13.31-.29Zm-252.59-1.17c.71-.14.7-.16-.36-.79-1.16-.69-1.36-1.31-.65-2.02.48-.48.6-2.14.16-2.14s-.88,1.02-.88,1.96-.46,1.54-1.21,1.54c-.47,0-.48.09-.06,1.31l.45,1.31.92-.5c.51-.28,1.25-.57,1.65-.65h0Zm37.09-.14c-.16-1.74-.36-2.22-.88-2.08-.28.07-.86.22-1.3.31-.89.2-1.04.77-.34,1.35.25.21.4.59.33.86-.1.38.1.47,1.07.46,1.15-.02,1.19-.05,1.12-.89h0Zm-10.29-1.27c.21-.38.51-.5,1.03-.4.93.18.94-.22.04-1.06-.57-.53-.89-.62-1.76-.45-1.02.19-1.05.22-.58.74.37.41.41.64.16.94-.18.22-.24.48-.14.59.36.36.95.19,1.24-.35h0Zm-7.05-2.66c.65,0,.95-.14.95-.44,0-.27-.27-.44-.7-.44-.74,0-1.05-.48-1.05-1.61,0-.83-.52-1.23-.76-.59-.1.25-.39.46-.65.46-.4,0-.41.05-.06.27.36.23.36.38.03,1-.53.99-.21,1.76.64,1.53.36-.1,1.08-.18,1.6-.18h0Zm-10.31-1.83c.65-.96,1.45-1.03,2.04-.19.24.34.57.53.75.42.63-.39.29-.95-.92-1.49-.85-.38-1.27-.77-1.33-1.22-.09-.62-.64-.96-.64-.39,0,.15-.46.42-1.02.61-.9.3-1.46,1.17-.75,1.17s1.2.96,1.06,2c-.08.61-.06.82.07.48.12-.32.46-.94.76-1.38Zm38.47.49c.44-.6.47-.81.16-1.18-.29-.35-.3-.57-.02-1.01.21-.34.23-.56.06-.56-.16,0-.29.15-.29.34s-.08.26-.18.16c-.1-.1-.44-.05-.76.12-.41.22-.67.22-.89-.01-.45-.45-2.32-.42-2.17.04.07.2.44.36.83.36.51,0,.85.28,1.2,1,.45.9,1,1.48,1.4,1.47.08,0,.39-.33.68-.74h0Zm216.2.04c0-.57-.35-.77-.76-.43-.21.17-.31.49-.22.71.18.47.98.24.98-.28h0Zm-226.66.24c.36-.14.39-.27.14-.58-.38-.46-.85-.27-.85.34,0,.47.06.49.71.24h0Zm-.13-1.84c0-.39-.53-.67-.88-.45-.16.1-.22.31-.13.45.22.35,1.01.35,1.01,0h0Zm-35.08-1.62l1.12-.32-.93-.49c-.51-.27-1.05-.7-1.2-.96-.21-.38-.54-.43-1.7-.27l-1.44.2.84,1.74.84,1.74.68-.65c.37-.36,1.18-.8,1.8-.98h0Zm252.84,1.02c0-.16-.13-.29-.29-.29s-.29.13-.29.29.13.29.29.29.29-.13.29-.29Zm-216.27-.87c.48,0,.31-2.04-.19-2.23-.62-.24-1.88.37-1.88.91,0,.65.95,1.65,1.4,1.47.22-.08.51-.15.66-.15h0Zm-5.27-2.04c0-.16-.13-.29-.29-.29s-.29.13-.29.29.13.29.29.29.29-.13.29-.29Zm128.1-.9c.31-.65.8-1.46,1.09-1.79.64-.74.67-1.35.08-1.58-.57-.22-1.35.43-1.25,1.03.08.45-.41,1.98-.96,3.02-.19.36-.16.51.1.51.2,0,.62-.54.93-1.19Zm-131.57.12c-.25-.94-.83-1.21-1.1-.51-.12.32,0,.65.35.9.8.58.99.49.75-.39Zm67.01-.53c0-.24-.2-.44-.44-.44s-.44.2-.44.44.2.44.44.44.44-.2.44-.44Zm-69.96-.15c0-.16-.13-.29-.29-.29s-.29.13-.29.29.13.29.29.29.29-.13.29-.29Zm-7-.27c0-.15.46-.44,1.03-.64.76-.27.97-.49.83-.82-.11-.25-.26-.94-.33-1.54s-.17-1.09-.21-1.09-.59.51-1.21,1.12c-1.06,1.05-1.11,1.19-.86,2.19.24.95.75,1.49.75.79h0Zm75.65-.31c.1-.16-.03-.29-.29-.29s-.39.13-.29.29c.1.16.23.29.29.29s.19-.13.29-.29Zm68.82-.04c.28-.45-.78-1.22-1.15-.84-.18.18-.15.44.09.73.44.54.78.57,1.06.11h0Zm-105.99-.68c0-.24-.2-.44-.44-.44s-.44.2-.44.44.2.44.44.44.44-.2.44-.44Zm102.45-.83c.02-.46.26-1,.54-1.2.27-.2.49-.55.49-.77,0-.28-.14-.23-.43.15-.26.34-.78.56-1.32.56-.78,0-.88.08-.72.61.15.51.3,1.06.42,1.58.01.05.24.05.51,0,.31-.06.5-.4.52-.93h0Zm-121.97.12c-.17-.31-.32-.93-.33-1.38l-.03-.82-.3.93c-.35,1.09-.14,1.84.51,1.84.36,0,.39-.12.15-.56h0Zm10.24-1.38c.2-.24.1-.44-.32-.67-.33-.18-.6-.58-.6-.9s-.21-.66-.47-.76c-.59-.22-1.06.49-.66.98.16.2.22.48.13.63s.03.43.27.63c.24.2.43.58.43.85s.16.65.36.86c.29.3.38.21.46-.45.05-.45.23-.97.38-1.16h0Zm-37.33.6c.21-.26.62-.56.9-.66.47-.17.48-.26.08-1.02-.24-.46-.43-1.01-.43-1.23,0-1.17-1.74.32-2.1,1.81-.32,1.28.76,2.05,1.55,1.1h0Zm39.03-.17c0-.47-.09-.56-.32-.32-.18.18-.24.47-.13.64.3.49.45.38.45-.32h0Zm-10.91-.75c-.1-.1.3-.67.89-1.27,1.05-1.07,1.22-2.19.29-1.83-.32.12-.39,0-.27-.44.12-.47.02-.61-.46-.61-.43,0-.62.18-.62.59,0,.33-.2.67-.44.76-.58.22-.56,1.19.03,1.78.43.43.43.5-.03.83-.42.31-.44.43-.11.79.35.37.42.37.64,0,.13-.24.17-.51.07-.61h0Zm150.83.22c0-.16-.13-.29-.29-.29s-.29.13-.29.29.13.29.29.29.29-.13.29-.29Zm-159.16-1.02c0-.24-.2-.44-.44-.44-.46,0-.58.34-.24.68.34.34.68.21.68-.24h0Zm84.96.17c.24-.39-.36-.69-.94-.47-.42.16-.43.23-.06.46.55.35.79.35,1,0h0Zm-73.53-1.53c-.39-.39-.75.23-.51.87.18.46.21.45.49-.04.2-.36.2-.64.01-.83h0Zm-6.77.64c0-.16-.13-.29-.29-.29s-.29.13-.29.29.13.29.29.29.29-.13.29-.29Zm-32.62-.33c.54-.18,1.04-.38,1.1-.42.06-.05-.31-.54-.83-1.08-.9-.96-.98-.98-2.06-.66-.62.18-1.2.42-1.31.52-.19.19,1.52,1.99,1.9,1.99.11,0,.65-.15,1.2-.33Zm33.58-.83c-.08-.32-.27-.58-.42-.58s-.13.26.04.58c.17.32.36.58.42.58s.04-.26-.04-.58Zm125.97-.2c.1-.27.02-.59-.19-.72-.59-.37-.81-.29-.81.29,0,.96.68,1.26,1,.44h0Zm-56.39-.24c0-.24-.2-.44-.44-.44-.46,0-.58.34-.24.68.34.34.68.21.68-.24Zm66.75-.58c.2-.24.56-.44.8-.44.37,0,.41-.29.25-1.68-.11-.94-.38-1.82-.62-2-.24-.18-.43-.48-.43-.68,0-.45-.93-.28-1.09.2-.07.2.05.36.27.36.24,0,.38.33.36.89-.02.68-.27,1.06-1.09,1.61-1.37.93-1.43,1.79-.12,1.95.52.06,1.03.14,1.13.16.1.03.35-.15.55-.39h0Zm-139.63-.73c0-.32-.19-.58-.42-.58-.51,0-.84.48-.6.87.32.51,1.02.31,1.02-.29Zm131.03,0c.1-.16.51-.29.92-.29.71,0,.73-.05.53-1.24-.11-.68-.33-1.4-.49-1.59-.16-.19-.2-.62-.09-.95.15-.46.06-.6-.38-.6-.66,0-1.35.72-1.1,1.13.1.16.05.36-.1.45-.15.09-.36.04-.46-.13-.3-.49-.77,0-.58.61.21.67-.23.74-.75.11-.52-.62-.99-.08-.75.87.12.49.39.75.77.75.32,0,.84.26,1.16.58.64.64,1.04.73,1.31.29h0Zm-93.9-.46c.31-.8.2-1.09-.26-.7-.48.4-.59,1.17-.18,1.17.14,0,.34-.21.44-.46h0Zm64.45-.12c.1-.16.04-.29-.13-.29s-.31.13-.31.29.06.29.13.29.21-.13.31-.29Zm-37.17-1.14c0-.27.16-.65.35-.84.27-.27.25-.45-.1-.8-.41-.41-.53-.35-1.26.61-.78,1.03-.79,1.07-.27,1.58.6.59,1.27.3,1.27-.54h0Zm72.59.69c0-.25-.13-.37-.3-.27-.16.1-.22.31-.13.45.25.4.42.33.42-.18h0Zm-148.23-.13c.1-.16.63-.29,1.18-.29s1-.14,1-.31c0-.59-1.55-1.74-2.34-1.74-1.16,0-1.48.53-1,1.68.4.95.82,1.19,1.16.66h0Zm40.14-.35c-.21-.21-.34-.23-.34-.04,0,.39.34.73.54.54.08-.08,0-.31-.19-.5h0Zm-1.51-2.01c0-.14-.2-.26-.44-.26s-.44.26-.44.62c0,.52.07.56.44.26.24-.2.44-.48.44-.62Zm-46.79-.26c.1-.16.53-.29.96-.3h.78s-.69-.39-.69-.39c-.58-.32-.61-.41-.22-.56.67-.26.58-.96-.18-1.49-1-.7-1.68-.56-2.02.42-.26.75-.41.85-1.05.69-.52-.13-.68-.09-.54.15.11.18.4.33.63.33.24,0,.42.28.42.67,0,1.27,1.22,1.59,1.9.49h0Zm2.58.15c.1-.27,0-.44-.26-.44-.24,0-.43.2-.43.44s.12.44.26.44.34-.2.43-.44Zm91.14-.17c0-.71-.68-.61-.82.12-.06.29.09.49.36.49s.46-.25.46-.61h0Zm-55.97-.36c0-.55-.28-.76-.76-.58-.62.24-.49.97.17.97.32,0,.58-.17.58-.39Zm140.8.1c0-.16-.23-.29-.51-.29-.44,0-.45.05-.07.29.55.36.58.36.58,0h0Zm-150.6-.94c-.11-.18-.28-.13-.43.11-.4.63-.3.94.17.54.24-.2.35-.49.26-.65Zm7.12.11c.08-.25-.06-.36-.39-.29-.29.06-.58.28-.65.49-.08.25.06.36.39.29.29-.06.58-.28.65-.49Zm12.31-1.02c0-.49-.07-.48-.71.14-.39.37-.64.78-.57.9.23.38,1.28-.46,1.28-1.03Zm56.03.05c-.19-.19-.43-.26-.53-.16-.1.1-.1.41,0,.69.15.38.27.42.53.16.26-.26.26-.42,0-.69Zm57.95.49c0-.24-.13-.44-.29-.44s-.29.2-.29.44.13.44.29.44.29-.2.29-.44Zm46.79-.58c0-.87-1.14-.78-1.26.1-.08.57.02.66.58.58.45-.06.68-.29.68-.68h0Zm-216.17-.44c.98,0,1.14-.31.46-.87-.24-.2-.44-.73-.44-1.18s-.13-.9-.29-1c-.54-.33-1.45.18-1.64.91-.12.48-.33.67-.61.56-.84-.32-.97.19-.24.92.41.41.74.86.74,1s.25.13.56-.04c.31-.17.97-.3,1.46-.3h0Zm38.5.32c0-.35-.62-.56-1.12-.38-.32.12-.32.18,0,.39.52.33,1.12.32,1.12-.01h0Zm-1.91-.3c.09-.15.03-.36-.14-.46-.43-.27-1.23.08-1.01.44.23.37.93.38,1.15.02h0Zm-8.01-1.38c1.38.28,1.97-.8.7-1.28-.42-.16-.83-.55-.91-.87-.21-.8-.66-.71-1.67.31-.66.67-.78.95-.51,1.22.19.19.34.67.34,1.07v.73l.62-.67c.46-.49.83-.63,1.42-.51h0Zm18.37.77c0-.16-.2-.29-.45-.29s-.37.13-.27.29c.1.16.3.29.45.29s.27-.13.27-.29Zm8.68-.24c.06-.19-.09-.35-.35-.35s-.46.21-.46.46c0,.51.63.43.81-.12h0Zm112.96-.27c.08-.28.24-.74.36-1.02.13-.31.08-.51-.11-.51-.18,0-.32.25-.32.57s-.13.65-.29.75c-.36.22-.38.73-.03.73.14,0,.32-.23.4-.51h0Zm-36.89-1.74c.25-.66-.39-1.13-.93-.68-.69.58-.58,1.45.16,1.25.33-.09.68-.35.77-.58Zm35.28.32c-.1-.1-.35-.11-.56-.02-.23.09-.16.16.18.18.31.01.48-.06.38-.15h0Zm-71.34-.97c0-.15-.13-.36-.29-.45s-.29.02-.29.27.13.45.29.45.29-.12.29-.27Zm16.62-.02c0-.16-.13-.29-.29-.29s-.29.13-.29.29.13.29.29.29.29-.13.29-.29Zm-65.44-.58c.1-.32.29-.58.41-.58s.37-.32.55-.71c.23-.52.48-.66.92-.55.34.09.6.02.6-.17s-.2-.33-.44-.33-.44-.26-.44-.62c0-.5-.13-.58-.66-.44-.36.1-.95.18-1.31.18-.77,0-.88.72-.18,1.12.47.26.46.99-.03,2.17-.12.3-.09.51.09.51.17,0,.39-.26.49-.58Zm47.08.29c0-.16-.13-.29-.29-.29s-.29.13-.29.29.13.29.29.29.29-.13.29-.29Zm40.4-.5c-.3-.3-.54.15-.3.54.18.3.25.3.35,0,.07-.2.04-.45-.05-.54h0Zm-124.1-.35c.22-.14.33-.45.24-.69-.2-.53.31-1.09,1.01-1.09s.67-.77-.02-1.15c-.38-.2-.5-.51-.41-1.02.11-.6,0-.76-.67-.93-.64-.16-.92-.06-1.34.46-.6.74-.66,1.26-.25,2.04.21.39.17.63-.15.89-.59.49-.54,1.38.08,1.54.83.22,1.07.21,1.5-.07h0Zm46.32-.08c.49-.49.44-1.4-.09-1.4-.48,0-1.9,1.13-1.9,1.51s1.59.28,1.98-.11h0Zm76.1-1.01c-.27-.33-.39-.28-.68.26-.47.9-.22,1.25.46.64.43-.39.48-.59.22-.9h0Zm-19.2.78c0-.16-.13-.29-.29-.29s-.29.13-.29.29.13.29.29.29.29-.13.29-.29Zm-37.46-.58c.1-.16-.03-.29-.29-.29s-.39.13-.29.29c.1.16.23.29.29.29s.19-.13.29-.29Zm-68.07-.41c0-.73-.34-1.34-.76-1.34s-.57,1.19-.21,1.55c.35.35.97.21.97-.22h0Zm77.25-.19c0-.15-.13-.27-.29-.27s-.29.2-.29.45.13.37.29.27.29-.3.29-.45Zm141.67.31c0-.16-.13-.29-.29-.29s-.29.13-.29.29.13.29.29.29.29-.13.29-.29Zm-74.52-.44c.2-.52-.98-1.72-1.34-1.36-.35.35.26,1.8.76,1.8.23,0,.49-.2.58-.44Zm-69.77-.73c0-.16-.06-.29-.13-.29s-.21.13-.31.29c-.1.16-.04.29.13.29s.31-.13.31-.29h0Zm50.77-1.82c-.15-.15-.48-.23-.72-.18-.39.09-.38.23.04,1.2l.48,1.1.24-.92c.14-.54.12-1.04-.04-1.2h0Zm-132.39,1.23c.17-.32.55-.58.85-.58s.69-.18.87-.4c.26-.31.12-.63-.62-1.44-.94-1.03-.96-1.04-1.77-.55-.61.37-.77.63-.62,1.07.1.32.26,1.01.34,1.53.17,1.08.51,1.21.96.36h0Zm75.21.19c0-.21-.1-.49-.22-.61-.22-.22-.26-.37-.33-1.19-.03-.31-.31-.42-.98-.36-.79.06-.96-.04-1.04-.58-.11-.8-.93-.88-.93-.09,0,.31-.13.65-.3.75-.49.3,0,.76.61.57.45-.14.56-.03.56.57s.13.75.86.75c.47,0,.94.13,1.04.29.26.42.73.36.73-.1Zm37.92-.4c.13-.36.13-.72,0-.8-.4-.25-1.59.87-1.35,1.27.33.53,1.09.27,1.36-.47h0Zm-73.2-.34c0-.14-.19-.33-.42-.42-.23-.09-.46-.53-.51-.98-.08-.73-.2-.81-1.08-.77-.54.03-1.19.25-1.43.5-.4.4-.29.52,1.13,1.17,1.71.78,2.31.91,2.31.51Zm-11.29-.25c.06-.12-.04-.51-.23-.87-.3-.58-.41-.6-.89-.25-.47.34-.49.47-.16.87.41.49,1.08.62,1.27.25h0Zm17.99-.66c0-.16-.13-.29-.29-.29s-.29.13-.29.29.13.29.29.29.29-.13.29-.29Zm95.03-.29c0-.16-.14-.29-.31-.29s-.23.13-.13.29c.1.16.24.29.31.29s.13-.13.13-.29Zm-36.23-.4c.4-.4-.63-1.09-1.35-.91-1,.25-1.43.69-.97.97.4.25,2.06.2,2.32-.07Zm44.98-.2c0-.15-.2-.27-.44-.27-.45,0-.58.34-.25.67.23.23.69-.03.69-.4Zm57.95-.3c.04-.23-.12-.68-.36-1-.41-.55-.44-.52-.45.54,0,.77.1,1.08.36,1,.2-.07.4-.31.45-.54Zm-178.67-.28c.32.17.87.31,1.22.31.53,0,.58-.07.27-.44-.2-.24-.58-.44-.85-.44s-.79-.21-1.15-.47c-.8-.56-1.26-.24-1.02.7.13.5.26.58.55.34.27-.23.55-.23.97,0h0Zm44.35.02c0-.16-.14-.29-.31-.29s-.23.13-.13.29c.1.16.24.29.31.29s.13-.13.13-.29Zm58.93-.58c.7,0,.92-.46.55-1.16-.43-.8-.73-.74-1.46.28-.62.88-.55,1.84.09,1.19.17-.17.55-.32.82-.32h0Zm-75.25-.41c0-.38.21-.78.47-.88.26-.1.4-.36.31-.58s0-.54.17-.72c.51-.51,0-.75-.82-.38-1.09.5-1.9.44-1.69-.12.15-.39,0-.43-.96-.25-.62.11-1.18.24-1.23.29-.06.05.44.36,1.09.7.67.34,1.19.82,1.19,1.09,0,.52.81,1.55,1.21,1.55.14,0,.25-.31.25-.7h0Zm92.25.09c-.09-.15-.29-.2-.45-.11-.15.09-.2.29-.11.45.09.15.29.2.45.11.15-.09.2-.29.11-.45h0Zm-83.68-.95c.1-.39.44-.77.76-.85.34-.09.59-.4.59-.73s.25-.64.58-.73c.35-.09.58-.4.58-.76,0-.34.13-.61.29-.61s.29-.25.29-.57c0-.45-.28-.61-1.31-.76-1.44-.22-2.18.14-2.18,1.06,0,.29.24.7.53.91.48.34.49.48.14,1.33-.29.71-.57.95-1.12.95-.6,0-.73.14-.73.83,0,.45.08.91.18,1.01.33.33,1.2-.34,1.38-1.06h0Zm85.4.57c.18-.47-.06-.81-.43-.59-.33.2-.32,1,0,1,.14,0,.33-.18.42-.41h0Zm-92.5-.17c0-.16-.13-.29-.29-.29s-.29.13-.29.29.13.29.29.29.29-.13.29-.29Zm177.67-.29c.1-.16.04-.29-.13-.29s-.31.13-.31.29.06.29.13.29.21-.13.31-.29Zm-159.6-.29c0-.16-.13-.29-.29-.29s-.29.13-.29.29.13.29.29.29.29-.13.29-.29Zm-13.99-1c0-.07-.08-.33-.18-.59-.14-.36-.27-.39-.58-.14-.46.38-.27.85.34.85.23,0,.42-.05.42-.12Zm87.74-.17c0-.16-.2-.29-.44-.29s-.44.13-.44.29.2.29.44.29.44-.13.44-.29Zm-139.05-.72c0-.23.26-.57.58-.74.54-.29.55-.38.16-1.12-.74-1.42-1.16-1.61-2.36-1.04-1.4.66-1.55,1.18-.61,2.05.42.39.77.84.77.99s.33.28.73.28c.45,0,.73-.17.73-.43h0Zm26.24.13c0-.35-.82-.72-1.06-.48-.26.26.18.78.64.78.23,0,.42-.14.42-.3Zm38.64-.02c.25-.41-.51-.91-.85-.56-.28.28-.01.89.39.89.14,0,.35-.15.46-.32Zm11.2-.16c0-.07-.58-.39-1.29-.7-.71-.31-1.36-.73-1.44-.93-.11-.25-.28-.2-.6.2-.42.52-.39.6.4,1.18.61.45,1.14.59,1.89.5.57-.07,1.04-.18,1.04-.25Zm36.3-.12c.18-.55,0-1.12-.26-.83-.31.34-.48,1.43-.22,1.43.16,0,.38-.27.48-.6h0Zm-74.71-.16c.63-.22.67-.69.06-.69-.25,0-.52-.2-.61-.44-.09-.24-.47-.44-.85-.44s-.76-.13-.86-.3c-.1-.16-.31-.22-.45-.13-.53.33-.26.89.6,1.21.49.19.87.54.87.82s.15.42.36.32c.2-.09.59-.25.87-.35h0Zm178.47.18c.1-.16-.03-.29-.29-.29s-.39.13-.29.29c.1.16.23.29.29.29s.19-.13.29-.29Zm-167.44-.73c0-.16-.27-.33-.6-.38-.59-.09-.79.24-.39.64.28.28.99.1.99-.25Zm92.1-.1c.67-.55.58-1.21-.16-1.21-.39,0-1.31,1.07-1.31,1.52,0,.41.79.24,1.47-.31Zm-75.61-.39c-.09-.23-.16-.16-.18.18-.01.31.06.48.15.38.1-.1.11-.35.02-.56h0Zm77.63.51c0-.07-.13-.21-.29-.31-.16-.1-.29-.04-.29.13s.13.31.29.31.29-.06.29-.13Zm5.54,0c0-.07.08-.33.18-.58.13-.35,0-.46-.58-.46-.83,0-.84.02-.58.7.15.4.99.68.99.34h0Zm-45.08-.89c.1-.26-.08-.56-.43-.75-.82-.44-1.04-.11-.4.6.63.7.62.7.83.15h0Zm47.12-.31c0-.23-.12-.42-.26-.42-.32,0-.64.76-.41.98.26.26.67-.09.67-.56h0Zm57.26-.1c.19-.31-.54-.98-.79-.73-.23.23.07.99.39.99.13,0,.32-.12.4-.26Zm-215.55-1.59c0-.13-.37-.61-.82-1.07l-.83-.83-.92.58c-1.09.69-1.09.69-.35,1.9l.57.93,1.18-.64c.65-.35,1.18-.75,1.18-.88Zm74.52.74c.21-.27.38-.6.39-.72.02-.4-.54-.22-.81.26-.25.45-.32.45-.95,0-.38-.26-.85-.48-1.06-.48-.48,0-.49,1.36,0,1.55.64.25,2.06-.1,2.45-.62h0Zm-34.29.23c0-.16-.06-.29-.13-.29s-.21.13-.31.29c-.1.16-.04.29.13.29s.31-.13.31-.29Zm63.06-.87c.58,0,.63-.32.14-.82-.44-.44-1.8-.47-1.53-.04.11.17-.03.56-.3.86-.74.82-.24,1.36.56.6.35-.33.87-.6,1.14-.6h0Zm47.13,0c0-.16-.13-.29-.29-.29s-.29.13-.29.29.13.29.29.29.29-.13.29-.29Zm-56.84-.75c0-.23.24-.42.53-.42s.83-.41,1.2-.91c.62-.83.63-.94.2-1.37-.3-.3-.47-.34-.47-.11,0,.19-.16.35-.35.35-.27,0-.27-.08,0-.35.19-.19.35-.64.35-.99s.2-.71.44-.81.44-.33.44-.53c0-.28-.08-.28-.35,0-.19.19-.69.35-1.11.35-.48,0-1.11.36-1.69.96-.85.88-.9,1.04-.64,1.97.39,1.37.36,1.74-.13,1.74-.23,0-.51.15-.63.34-.14.23-.02.29.39.18.33-.09.77-.05.98.08.47.29.85.09.85-.47h0Zm46.35.45c0-.16-.13-.29-.29-.29s-.29.13-.29.29.13.29.29.29.29-.13.29-.29Zm-108.44-.45c0-.47-.77-.92-1.07-.62-.09.09-.09.37,0,.62.22.58,1.07.59,1.07,0h0Zm23.9.17c0-.34-.57-.71-.78-.5s.16.78.5.78c.15,0,.27-.12.27-.27Zm9.62-.16c.28-.34.29-.53.01-.86-.44-.52-1.18-.27-1.18.4,0,.93.58,1.16,1.17.45h0Zm-18.95-1.02c0-.16-.13-.29-.29-.29s-.29.13-.29.29.13.29.29.29.29-.13.29-.29Zm85.18-.22c.65-.75.85-1.82.35-1.82-.67,0-1.44.97-1.34,1.68.11.79.39.83.99.15Zm37.8.05c.23-.19-1.4-.45-1.7-.27-.57.35,0,.74.81.55.43-.1.83-.23.89-.28Zm-9.34-.92c.29-.28.79-.66,1.09-.84.45-.27.5-.44.23-.87-.25-.41-.22-.69.09-1.17.36-.55.35-.81-.06-2.03-.39-1.16-.41-1.51-.1-2.09.29-.54.56-.67,1.19-.57,1.01.15,1.63-.45,1.11-1.08-.19-.23-.39-.76-.43-1.18-.11-.96-.28-1.12-.96-.9-.42.13-.52.38-.43,1.04.11.76,0,.92-.99,1.38-.61.29-1.35.75-1.65,1.04-.48.47-.48.57-.08.97.59.59.57,1.28-.03,1.28-.34,0-.39.1-.17.36.42.51.08,2.02-.49,2.17-.26.07-.69.51-.96.97l-.49.85.98.18c.54.1,1.05.37,1.14.59.2.53.35.52,1-.1h0Zm-68.46-.51c0-.24-.13-.44-.29-.44s-.29.2-.29.44.13.44.29.44.29-.2.29-.44Zm30.22-.2c-.09-.23-.16-.16-.18.18-.01.31.06.48.15.38.1-.1.11-.35.02-.56h0Zm-65.35-.24c-.1-.16-.31-.29-.47-.29s-.21.13-.11.29c.1.16.31.29.47.29s.21-.13.11-.29Zm133.36-.33c0-.16-.2-.5-.45-.75s-.39-.63-.3-.85c.09-.23-.03-.4-.27-.4-.55,0-.54.68.02,1.77.41.8,1.01.93,1.01.23h0Zm-179.18-.36c.08-.22.02-.54-.15-.7-.41-.41-.04-.94.66-.94.76,0,.71-.36-.16-1.4-.69-.81-.8-.85-1.97-.6-2.14.46-2.15.47-1.14,1.51.51.52.92,1.23.92,1.57,0,.41.22.66.66.75.36.07.74.14.84.17.1.02.26-.14.34-.36Zm112.24-.47c-.54-.91-.82-1.06-1.11-.59-.27.43.51,1.47,1.1,1.47.51,0,.51-.03.01-.87h0Zm-36.46.3c.74,0,.63-.53-.14-.64-.9-.13-.99-1.02-.19-1.87.61-.65.63-.75.2-1.17-.54-.54-1.1-.31-1.1.45,0,.29-.33.88-.73,1.31-.87.93-.87.99-.23,1.7.31.34.72.49,1.09.39.33-.09.82-.16,1.1-.16Zm70.18-.3c0-.16-.2-.29-.45-.29s-.37.13-.27.29c.1.16.3.29.45.29s.27-.13.27-.29Zm34.11-.33c0-.16-.13-.21-.29-.11-.16.1-.29.31-.29.47s.13.21.29.11c.16-.1.29-.31.29-.47Zm36.41-1.23c.29-.86.3-1.2.04-1.46-.72-.71-1.49,1.29-.99,2.58.23.6.46.32.95-1.12Zm-179.54.68c0-.32-.1-.58-.23-.58s-.25.26-.27.58c-.02.32.08.58.23.58s.27-.26.27-.58Zm105.64-.24c.08-.13-.24-.58-.71-.99-.85-.75-.87-.75-1.52-.2-.54.45-.58.6-.24.82.23.15.57.21.77.13.2-.08.45,0,.55.17.23.37.94.41,1.15.07h0Zm-39.51-1.09c.09-.48.04-.5-.36-.16-.56.46-.63,1-.11.83.2-.07.41-.37.47-.67Zm111.1.01c0-.24-.2-.44-.44-.44s-.44.2-.44.44.2.44.44.44.44-.2.44-.44Zm-223.38-.66c.73-.72.82-1.02.88-3.06.04-1.28-.06-2.26-.21-2.26s-.54.51-.86,1.14c-.32.63-.93,1.42-1.36,1.75l-.78.62.63.67c.35.37.63.96.63,1.31,0,.82.1.8,1.08-.16Zm75.29-.09c0-.39-.58-.63-1.07-.45-.36.14-.38.26-.11.59.35.42,1.18.31,1.18-.15h0Zm19.26-.26c.96-.96,1.06-1.34.4-1.59-.36-.14-.38-.29-.13-.78.26-.48.5-.57,1.15-.42,1.18.26,1.28-.18.43-1.87-.71-1.41-1.34-1.84-1.73-1.19-.1.16-.53.29-.96.29-.43,0-1.17.26-1.64.57l-.86.57.79.3c.61.23.79.49.79,1.16,0,.48.13.95.29,1.04.45.28.35,1.23-.15,1.42-.53.2-.58.96-.07,1.16.66.27.84.2,1.7-.66h0Zm9.76-1.45c-.26-.42-1.33-.42-1.33,0,0,.18-.22.5-.5.7-.43.31-.44.43-.1.85.37.45.47.41,1.26-.37.47-.47.77-1.01.66-1.18h0Zm75.22,1c-.26-.4-.47-.92-.47-1.17s-.14-.45-.31-.45-.27.23-.23.51-.02.67-.14.87c-.34.54.04.95.88.95.72,0,.73-.02.27-.72Zm-143.31-.16c0-.16-.12-.29-.27-.29s-.36.13-.45.29c-.1.16.02.29.27.29s.45-.13.45-.29Zm114.97-.43c.39-.6.41-.83.11-1.31-.49-.79-.67-.74-1.1.28-.64,1.55.12,2.35.99,1.03Zm58.48-.13c0-.34-.57-.71-.78-.5s.16.78.5.78c.15,0,.27-.12.27-.27Zm-201.43-.45c0-.24-.12-.44-.27-.44-.37,0-.63.46-.4.69.33.33.67.2.67-.25h0Zm58.54-.07c-.12-.63-1.11-.87-1.11-.27,0,.4.38.69.97.75.13.01.2-.21.14-.48Zm65.35-.21c0-.39.22-.84.48-.98.64-.36.29-1.35-.38-1.09-.26.1-.71-.03-.99-.28-.65-.59-1.06-.06-.64.84.16.35.43.99.61,1.43.4.99.92,1.04.92.09Zm-30.49.25c.25-.1.46-.38.46-.62,0-.34-.21-.4-.93-.26-1.16.23-1.36.43-.81.77.51.32.67.34,1.28.1h0Zm-72.8-.93c.51-.33-.03-1.02-.83-1.08-.37-.03-.87-.1-1.1-.17-.23-.07-.47.11-.53.39-.17.76,1.63,1.39,2.47.86Zm94.39-.64c-.25-.8.08-1.29.59-.87.24.2.67.24,1.07.11.37-.12.92-.23,1.23-.24.72-.03.97-.74.27-.77-.29-.01-.93-.25-1.41-.53-.71-.42-.87-.71-.87-1.56,0-.57-.1-1.14-.22-1.26-.12-.12-.22.21-.22.74,0,.88-.06.94-.74.77-.81-.2-2.16.5-1.61.84.42.26.4,1.42-.04,1.85-.25.25-.26.35-.02.35.18,0,.41-.13.5-.28.26-.43,1.03-.02,1.03.55,0,.47.24.89.51.89.06,0,.03-.26-.07-.58h0Zm-18.8-1.02c0-.36.28-1.01.62-1.44.43-.55.53-.88.32-1.09-.35-.35-1.64.41-1.69,1.01-.02.2-.05.73-.08,1.19-.03.59-.23.88-.7,1q-.65.17.07.36c.9.23,1.46-.16,1.46-1.03Zm1.3-.08c.12-.39.07-.66-.11-.66-.17,0-.31.19-.31.41s-.08.65-.19.95c-.13.36-.09.44.11.24.17-.16.39-.59.5-.95Zm-84.77-2.07c.07-1.35,0-1.78-.35-1.91-.26-.1-.5.01-.58.26-.07.24-.2.63-.27.87-.08.24-.44.56-.8.7s-.98.38-1.36.52l-.7.27,1.09,1.06,1.09,1.06.9-.55c.82-.5.91-.7.99-2.28Zm108.54,2.74c0-.07-.13-.21-.29-.31-.16-.1-.29-.04-.29.13s.13.31.29.31.29-.06.29-.13Zm-31.19-.45c0-.16-.14-.29-.31-.29s-.23.13-.13.29c.1.16.24.29.31.29s.13-.13.13-.29Zm-69.09-.93c0-.47-.09-.56-.32-.32-.18.18-.24.47-.13.64.3.49.45.38.45-.32h0Zm58.74.06c.51-.57.51-.61-.1-1.26-.35-.37-.64-.93-.64-1.24,0-.31-.18-.87-.39-1.25l-.38-.69-.62.87c-.34.48-1.02,1.04-1.52,1.24-.94.39-1.06,1.06-.29,1.49,1.01.56,2.79,1.36,3.09,1.39.18.02.56-.23.85-.55h0Zm40.9-.1c.07-.39-.05-.5-.43-.43-.29.06-.58.34-.64.64-.07.39.05.5.43.43.29-.06.58-.34.64-.64h0Zm6.75-1.08c0-.15-.2-.27-.44-.27-.45,0-.58.34-.25.67.23.23.69-.03.69-.4h0Zm22.15.31c0-.16-.2-.29-.44-.29s-.44.13-.44.29.2.29.44.29.44-.13.44-.29Zm-39.64-.44c0-.24-.05-.44-.11-.44s-.19.2-.28.44c-.09.24-.04.44.11.44s.28-.2.28-.44Zm14.79.26c-.1-.1-.35-.11-.56-.02-.23.09-.16.16.18.18.31.01.48-.06.38-.15h0Zm-121.26-.61c.54-.13.62-.29.45-.92-.11-.42-.21-1.29-.22-1.93,0-.66-.16-1.17-.35-1.17-.59,0-3.35,2.8-3.26,3.3.12.64,1.4,1.27,2.13,1.05.32-.1.88-.24,1.24-.33Zm102.98-.39c0-.17.31-.22.73-.11.51.13.73.06.72-.21-.02-.7-.99-1.56-1.81-1.6-.87-.05-.98.26-.52,1.48.28.73.88,1.04.88.45h0Zm38.7-.51c-.48-.51-.54-.74-.27-1.01.19-.19.35-.52.35-.72,0-.69-.55-.39-1.29.7-.86,1.27-.63,1.75.83,1.72l1.01-.02-.62-.66Zm-18.15.22c.1-.16-.02-.29-.27-.29s-.45.13-.45.29.12.29.27.29.36-.13.45-.29Zm-9.25-.53c.06-.19-.09-.35-.35-.35s-.46.21-.46.46c0,.51.63.43.81-.12h0Zm-85.71-.62c.36-.3.66-.65.66-.77s.21-.45.46-.73c.55-.61.35-1.43-.46-1.94-.48-.3-.69-.28-1.2.15-.34.28-.73.8-.87,1.16-.22.55-.37.61-.97.38-.94-.36-2.8-.05-2.8.46,0,.22,0,.5,0,.62s.26.22.57.23c.31,0,.66.1.77.22.12.12.64.21,1.16.21s1.04.13,1.13.29c.27.43.79.34,1.53-.28h0Zm-9.3-.89c.06-.4.24-.89.4-1.09.36-.43,1.98-.49,1.98-.07,0,.16.34.29.75.29,1.04,0,.76-.61-.48-1.02-.86-.29-1.09-.57-1.6-2l-.6-1.67-.77.6c-.85.67-1.68,2.13-1.68,2.97,0,.3.16,1.07.36,1.71.28.91.49,1.15.95,1.09.37-.05.62-.35.68-.81h0Zm151.63.47c0-.27-.34-.41-1.02-.41-.98,0-1.25.2-.83.62.38.38,1.85.21,1.85-.21Zm-36.88-.23c-.32-.18-.69-.51-.82-.72-.3-.51-2.05-.53-1.88-.03.07.2.5.41.97.46.47.05.98.22,1.13.36.15.15.48.27.73.26.33,0,.3-.09-.13-.34h0Zm26.96-.82c0-.58.15-.87.44-.87.24,0,.44-.12.44-.27,0-.24-2.33-.9-2.58-.72-.21.15,1.1,2.74,1.39,2.74.17,0,.31-.39.31-.87h0Zm-75.9-.73c.1-.26.54-.44,1.06-.44.49,0,.8-.09.69-.2-.11-.11.15-.34.57-.52l.77-.31-.93-1c-.87-.94-.91-1.07-.63-2.16.16-.64.23-1.27.15-1.4-.27-.43-.69-.24-.69.3,0,.91-1.64,2.91-2.47,3.01l-.75.09.74,1.08c.4.59.74,1.28.74,1.53,0,.58.55.59.77.02h0Zm-74.72-1.17c.82-.72,1.6-1.31,1.73-1.31s-.05-.38-.4-.85c-.53-.71-.6-1.1-.46-2.4.09-.85.26-1.93.37-2.4.13-.54.1-.78-.09-.66-.16.1-.38.7-.48,1.33-.21,1.31-1.38,2.85-2.49,3.29l-.75.29.66.44c.76.52.87,1.73.23,2.58-1.13,1.49-.17,1.31,1.69-.31h0Zm46.74-.32c.1-.63.38-1.37.62-1.66.32-.37.36-.61.13-.83-.37-.37-.95-.09-.95.46,0,.21-.2.55-.44.75-.24.2-.44.84-.44,1.44,0,1.94.77,1.83,1.07-.16Zm-9.07.15c.59-.66.33-1.51-.52-1.67-.47-.09-.87,1.18-.6,1.89.21.53.49.48,1.12-.22Zm96.82-.56c.18-.48.22-.94.09-1.02-.28-.17-1.18,1.49-.94,1.73.32.32.53.15.85-.71h0Zm-22.36.29c-.57-.37-.96-.37-.73,0,.1.16.4.29.67.29.42,0,.43-.04.06-.29Zm-45.35-1.83l.85-.83-.59-.59c-.52-.52-.67-.54-1.21-.2-.52.32-.62.66-.6,1.99.01,1.37.07,1.52.36,1.03.19-.32.73-.95,1.2-1.4Zm65.12,1.15c.06-.29-.09-.49-.36-.49s-.46.25-.46.61c0,.71.68.61.82-.12h0Zm10.06-.39c.26-.26-.39-1.01-.71-.81-.4.25-.3,1,.13,1,.21,0,.48-.09.58-.19Zm-112.11-1.4c.81-.25.82-.49.03-1.87l-.63-1.1-1.03.53c-.57.29-1.33.53-1.7.53-.87,0-.85.4.06,1.11.4.31.86.93,1.03,1.38l.31.81.65-.59c.36-.33.94-.68,1.3-.79h0Zm78.2,1.01c0-.16-.13-.29-.29-.29s-.29.13-.29.29.13.29.29.29.29-.13.29-.29Zm-72.59-.47c0-.31-.16-.41-.46-.29-.25.1-.52.18-.6.18s-.06.13.04.29c.29.46,1.02.34,1.02-.18h0Zm135.06-1.45c-.1-.26-.58-.42-1.32-.42-.94,0-1.14.09-1.06.51.06.3.36.51.72.51.34,0,.72.1.84.22.33.33.99-.34.81-.82Zm-149.59-1c.32,0,.82-.13,1.13-.29.51-.27.45-.4-.74-1.62l-1.29-1.32-1.18.67c-.81.46-1.12.81-1,1.11.1.24.39,1.04.65,1.77l.47,1.33.69-.82c.38-.45.95-.82,1.27-.82h0Zm91.6,1.52c.23-.37-.3-1.03-.66-.81-.47.29-.4,1.04.1,1.04.23,0,.48-.1.56-.23Zm20.58-1.22c0-.93-.38-1.52-.9-1.44-.22.04-.64-.03-.93-.16-.69-.3-.97,0-.51.56.3.36.28.47-.08.61-.25.09-.7.03-1.01-.13-.66-.35-.94-.17-.94.62,0,.43.14.51.6.36.41-.13.73-.02.99.33.32.44.46.47.85.14.39-.32.49-.31.64.07.27.71,1.29-.06,1.28-.97h0Zm-9.62.19c0-.2-.39-.51-.88-.69-.93-.35-.94-.18-.06.85.45.53.94.44.94-.17h0Zm-28.42-.48c.1-.16-.03-.29-.29-.29s-.39.13-.29.29c.1.16.23.29.29.29s.19-.13.29-.29Zm-43.98-.73c.09-.24.09-.65-.01-.91-.15-.38-.26-.4-.61-.11-.24.2-.43.61-.43.91,0,.65.82.74,1.06.11h0Zm37.13-1.25c0-.21-.18-.44-.41-.53-.24-.09-.41-.57-.41-1.19,0-1.27-.54-1.94-.97-1.19-.16.28-.52.51-.8.51s-.8.27-1.15.6c-.7.66-.59,1.16.5,2.15.34.3.61.71.61.9,0,.22.45.13,1.31-.26.72-.33,1.31-.78,1.31-.98Zm-11.54.91c.1-.27.07-.6-.07-.74-.33-.33-1.05.51-.79.92.28.45.65.37.86-.18h0Zm48.19-.31c.06-.18-.18-.48-.52-.66-.86-.46-1.36.05-.7.71.52.52,1.04.5,1.22-.04h0Zm36.64-.1c-.09-.15-.29-.2-.45-.11-.15.09-.2.29-.11.45.09.15.29.2.45.11.15-.09.2-.29.11-.45h0Zm-148.68-1.54c.5-.18.44-.3-.55-1.21-1.06-.97-1.14-1-1.82-.55-.59.39-.67.61-.51,1.39.29,1.33.34,1.37,1.38.95.52-.21,1.19-.47,1.5-.57Zm26.76,0c.52-.65,1.14-1.05,1.82-1.18,1.08-.2,1.34-.57.6-.86-.24-.09-.44-.45-.44-.79,0-.64-.86-2.31-1.19-2.31-.1,0-.5.25-.88.55-.38.3-1.37.64-2.19.75-2.38.33-5.65-.87-5.65-2.07,0-.53-.17-.5-1.14.22-.82.61-.84.96-.15,2.53.02.04.5-.12,1.08-.36,1.21-.5,3.2-.25,5.26.68,1.76.79,2.33,1.51,1.95,2.5-.62,1.63-.22,1.78.92.35h0Zm38.19.19c.21.07.87-.11,1.47-.42.98-.49,1.06-.61.73-1.13-.2-.32-.58-.65-.86-.74-.27-.09-.64-.6-.82-1.14-.31-.94-.37-.97-1.11-.64-.43.19-1.14.58-1.57.87-.71.48-.75.6-.44,1.32.61,1.41,1.47,2.35,1.86,2.03.2-.16.52-.23.73-.16Zm3.14-.06c0-.15-.13-.36-.29-.45-.16-.1-.29.02-.29.27s.13.45.29.45.29-.12.29-.27Zm25.36-.31c0-.16-.2-.29-.45-.29s-.37.13-.27.29c.1.16.3.29.45.29s.27-.13.27-.29h0Zm46.35-.29c0-.16-.14-.29-.31-.29s-.23.13-.13.29c.1.16.24.29.31.29s.13-.13.13-.29Zm-38.92-1.17c-.1-.16-.37-.29-.6-.29s-.42.13-.42.29.27.29.6.29.52-.13.42-.29Zm30.88-1.49c-.49-.94-.65-.99-1.63-.47-.41.22-.65.57-.6.86.08.39.39.49,1.38.47l1.28-.03-.43-.84h0Zm-37.95.25c.36-.2.7-.39.75-.41.05-.03-.21-.46-.58-.96-.55-.74-.82-.88-1.41-.73-1.35.33-1.57.82-.76,1.69.82.88,1.07.93,2,.42h0Zm-8.92-.81c.91-.39,1.48-1.58.92-1.92-.14-.09-.19-.77-.1-1.52.09-.75.04-1.55-.11-1.77-.36-.53-1.21-.2-1.21.47,0,.29-.24.91-.53,1.39-.42.7-.47,1.03-.22,1.68.22.59.21.96-.03,1.36-.31.5-.19,1.04.19.81.09-.06.58-.28,1.09-.5h0Zm48.19-.14c0-.24-.13-.44-.29-.44s-.29.2-.29.44.13.44.29.44.29-.2.29-.44Zm-5.98-.15c.1-.16.04-.29-.13-.29s-.31.13-.31.29.06.29.13.29.21-.13.31-.29Zm-5.17-.45c.76-.53.82-1.08.19-1.71-.41-.41-.54-.41-1.31-.01-.93.48-1.02.75-.55,1.61.37.68.81.71,1.67.11h0Zm-44.43-2.75c1.09,0,1.05-.24-.28-1.68l-1.26-1.37-.69.65c-.38.36-.85.65-1.04.65-.43,0-.45.48-.04.74.17.1.27.41.23.67-.04.27.02.85.14,1.31l.22.82,1.02-.9c.56-.49,1.32-.9,1.69-.9h0Zm-67.79.93c.64-.49.65-.58.29-1.74-.34-1.1-.82-1.65-.82-.95,0,.15-.38.5-.84.77-.81.48-.82.51-.29,1.04.3.3.54.74.54.98,0,.57.28.54,1.11-.1Zm72,.18c.46-.46.44-.68-.11-1.23-.31-.31-.71-.4-1.24-.27-1.06.25-1.07.28-.52,1.12.52.79,1.3.95,1.87.39h0Zm-34.05-1.25c0-1.08-.52-1.36-1.14-.61-.19.22-.69.5-1.13.61l-.79.2,1.02.37c1.76.64,2.04.57,2.04-.58h0Zm65.72-.13c.09-.15.03-.35-.13-.45-.16-.1-.3.02-.3.27,0,.51.17.59.42.18Zm-112.23-.92c.57-.34,1.04-.7,1.04-.8,0-.35-1.15-2.08-1.38-2.08-.12,0-.64.26-1.15.57l-.93.57.49,1.18c.27.65.59,1.18.7,1.18.11,0,.67-.27,1.24-.61h0Zm37.16-.73c-.47-.57-1.2-.18-.86.45.15.28.18.63.07.77-.11.14.09,0,.45-.3.49-.41.57-.65.34-.93h0Zm66.19.03c.2-.24.6-.44.89-.44.8,0,.91-.44.27-1.03-.32-.29-.58-.7-.58-.91s-.08-.39-.18-.39c-.39,0-1.56,1.34-1.57,1.8,0,.27-.14.57-.3.67-.53.33-.3.73.4.73.38,0,.86-.2,1.06-.44h0Zm21.28-.29c0-.24-.2-.44-.44-.44s-.44.2-.44.44.2.44.44.44.44-.2.44-.44Zm-58.01-1.29c0-.14-.2-.41-.45-.62-.37-.31-.53-.29-.92.1-.66.66,0,1.51.82,1.07.3-.16.55-.41.55-.54Zm-37.9.12c.79-.41.82-.5.54-1.38-.17-.52-.36-1.13-.43-1.36-.1-.31-.33-.22-.94.36-.49.47-1.14.78-1.67.78h-.86s1.09,1.02,1.09,1.02c1.26,1.17,1.16,1.14,2.26.58h0Zm67.43-.75l1.11-.31-1-1.11c-.55-.61-1.06-1.29-1.14-1.51-.11-.3-.38-.18-1.06.45-1.05.99-1.08,1.1-.44,2.07.52.8.91.86,2.53.41h0Zm-75.67-1.46l.78-.29-.86-.71c-.61-.5-1.07-.66-1.59-.54-.4.09-.75.19-.77.22-.02.03.1.65.27,1.38.3,1.3.33,1.32.85.79.3-.3.89-.67,1.32-.84h0Zm36.54-.35c-.37-.37-.75-.08-.48.36.11.17.33.23.49.13.2-.12.19-.29-.02-.5h0Zm29.25-.53c1.21-.71,1.23-.81.43-1.83-.72-.91-.8-.92-1.68-.18-.62.52-.65.66-.34,1.59.19.56.39,1.03.45,1.03s.57-.28,1.14-.61Zm18.39-.58c.11-.33.11-.69,0-.79-.22-.22-.73.5-.74,1.03,0,.59.52.42.73-.24h0Zm-92.05-1.01s-.19-.54-.51-1.16c-.32-.62-.58-1.3-.58-1.49,0-.71-.61-.71-1.46,0-.48.4-1.13.81-1.46.92-.58.18-.58.21.12,1.04.39.47.8,1.11.9,1.42.18.56.2.56,1.55-.07.75-.35,1.4-.65,1.44-.66h0Zm36.52.13c0-.17-.14-.57-.31-.89-.25-.47-.49-.54-1.24-.39-.51.11-1.04.3-1.17.42-.26.24.27,1.47.78,1.8.37.24,1.94-.53,1.94-.95Zm46.35-.14c0-.25-.13-.37-.29-.27-.16.1-.29.3-.29.45s.13.27.29.27.29-.2.29-.45Zm-16.71-1.15c.05-.16-.35-.54-.89-.83-1.18-.64-1.98-.37-1.63.55.17.45.48.59,1.32.58.61,0,1.15-.14,1.2-.31Zm-38.39-.95c0-.12-.19-.45-.42-.75-.58-.76-1.74-.39-1.5.49.09.35.17.8.17,1,0,.28.21.26.88-.08.48-.25.87-.55.87-.66h0Zm-9.93-1.35c.19-.22.66-.49,1.06-.59.83-.21.87-.53.29-2.18-.23-.66-.35-1.4-.26-1.64.27-.69-.03-.52-1.39.84-.7.7-1.45,1.32-1.67,1.39-.29.09-.18.45.42,1.36.88,1.34,1.05,1.43,1.55.82h0Zm37.92-.77c0-.15-.13-.27-.29-.27s-.29.2-.29.45.13.37.29.27c.16-.1.29-.3.29-.45Zm-8.65-2.48c-.17-.43-.74-.55-1.07-.22-.3.3.38.96.83.79.22-.08.33-.34.24-.57h0Zm-8.42-2.47c-.55-.61-.94-.69-1.52-.31-.28.18-.3.44-.08,1.03.29.78.31.78,1.2.32.87-.45.89-.49.4-1.03Zm28.44-1.45c0-.36-.54-.63-.86-.43-.43.26-.02,1.01.45.83.23-.09.41-.27.41-.4Zm-9.04-2.32c0-.16-.2-.29-.45-.29s-.37.13-.27.29.3.29.45.29.27-.13.27-.29Zm-8.78-2.01c.52-.33.16-.9-.56-.9-.62,0-.64.04-.39.7.2.52.38.56.95.2h0Zm-8.69-2.08c.46-.24.51-.42.26-.87-.57-1.07-1.78-.4-1.35.74.2.52.33.53,1.08.13h0Zm8.43-1.45c0-.16-.13-.29-.29-.29s-.29.13-.29.29.13.29.29.29.29-.13.29-.29Zm-24.78,278.13c0-.43.83-.97,1.17-.76.23.14.22.31-.02.61-.38.45-1.14.56-1.14.16h0Zm14.82-.82c-.48-.13-.96-.93-.71-1.19.26-.26,1.77.42,1.77.8,0,.44-.36.57-1.07.39Zm-191.76-.53c0-.46.51-.56,1.29-.26.65.25.28.7-.57.7-.44,0-.71-.17-.71-.44h0Zm164.31-.05c-.11-.11-.19-.5-.19-.87,0-.49.17-.68.59-.68.73,0,1.05.73.57,1.32-.39.47-.67.54-.97.24Zm2.87-1.55c-.1-.16.02-.29.27-.29s.45.13.45.29-.12.29-.27.29-.36-.13-.45-.29Zm90.29-.32c-1.39-.52-.24-1.54,2.05-1.83,1.86-.24,3.78.49,3.65,1.38-.12.85-1.03.94-1.84.19-.55-.51-.79-.57-1.27-.32-1.22.65-1.96.82-2.6.58Zm-84.83-.76c-.58-.21-.42-.96.2-.96.31,0,.64.12.73.26.21.35-.47.86-.93.7Zm54.93-1.99c-1.31-.73-.93-1.43.85-1.53,1.13-.07,1.65.05,2.18.49.53.43.62.66.38.91-.55.56-2.51.63-3.41.13Zm113.34.1c-.92-.52-1.02-.88-.5-1.75.6-1.02.92-1.02,1.9,0,.93.97.98,1.39.22,1.8-.7.37-.89.37-1.62-.05h0Zm-103.99-.28c-.89-.32-1.1-1.31-.35-1.6.78-.3,1.93.41,1.82,1.12-.11.76-.42.86-1.48.48h0Zm-64.64-1.26c0-.24.2-.44.44-.44s.44.2.44.44-.2.44-.44.44-.44-.2-.44-.44Zm12.02.09c.15-.45,1.94-.53,2.05-.09.04.16-.43.33-1.05.38-.83.07-1.09,0-1-.29Zm6.75.03c-1.11-.32-1.69-.97-1.45-1.61.23-.6,1.57-.38,2.98.49,1.83,1.13.89,1.82-1.53,1.12Zm55.93-1.06c-.98-.09-1.24-.23-1.24-.66s-.29-.58-1.38-.72c-3.44-.44-3.21-.31-3.59-2.02-.19-.86-.26-1.9-.16-2.32.17-.69.33-.76,1.72-.81.84-.03,1.98-.07,2.55-.09,1.61-.07,2.29.31,2.8,1.59.45,1.13.5,1.17,1.56,1,.97-.16,2.93.45,2.93.91,0,.29-2.36,1.31-3.03,1.31-.4,0-.8.13-.9.29-.19.31.37.42,1.65.32.99-.08,1.38.52.67,1.04-.52.38-1.02.41-3.56.18Zm105.05-.68c-1.07-.84-.97-1.07.48-1.1.97-.02,1.33.11,1.63.59.32.5.31.65-.01.86-.64.4-1.28.3-2.1-.35h0Zm51.57-.12c-.47-.39-.78-.79-.68-.88.2-.2,2.27,1.06,2.27,1.39,0,.43-.74.19-1.59-.51Zm-147.95-.68c0-.41.33-.6.76-.44.22.09.33.27.25.42-.2.33-1,.34-1,.02Zm-77.88-.92c-.43-.13-1.15-.44-1.6-.68-.46-.25-1.07-.52-1.37-.62-.44-.14-.48-.25-.18-.61.2-.24.49-.43.64-.43.56,0,4.6,2.05,4.6,2.34,0,.34-.98.34-2.09,0h0Zm-174.47-.41c-.51-.18-1.3-.85-1.76-1.49-1.18-1.65-2.7-4.43-2.7-4.94,0-.23-.47-1.24-1.05-2.23-1.21-2.06-1.37-3.65-.59-5.81.26-.72.47-1.72.48-2.21,0-.58.27-1.14.74-1.59.56-.53.7-.88.57-1.47-.14-.62-.01-.87.63-1.29.72-.47,1.01-.49,3.15-.16,4.78.73,6.73,1.49,8.84,3.44.82.76,1.24,1.4,1.24,1.87s.25.86.73,1.11c.62.33.73.6.73,1.73,0,1.91.6,2.64,2.16,2.64,1.04,0,1.43.18,2.32,1.04.86.84,1.23,1.01,1.87.87.44-.09,1.55-.24,2.47-.32,1.54-.14,1.68-.1,1.68.44,0,.32.13.59.29.59s.29.3.29.66c0,.79-1.76,2.03-3.06,2.16-.48.05-1.33.18-1.89.3-.56.12-1.22.22-1.46.24-.53.04-3.22,1.25-5.87,2.63-1.07.56-2.29,1.01-2.73,1.01s-1.53.18-2.44.41c-2.55.63-3.61.71-4.61.36h0Zm217.37.11c0-.16.13-.29.29-.29s.29.13.29.29-.13.29-.29.29-.29-.13-.29-.29Zm-226.08-.32c-.23-.38.37-.83,1.11-.84.68,0,.65.48-.05.86-.71.38-.81.38-1.06-.02h0Zm177.11-.13c0-.27.2-.42.49-.36.73.14.83.82.12.82-.36,0-.61-.19-.61-.46Zm42.99-.73c-.31-.5-.04-.54.74-.11.7.39.71.4.09.41-.35,0-.73-.13-.83-.3h0Zm-45.61-1.15c.57-.37.87-.37.87,0,0,.16-.3.29-.66.29-.53,0-.57-.06-.22-.29Zm-36.28-1.15c-.23-.37,1.1-1.77,1.68-1.77.5,0,1.37.76,1.37,1.19,0,.15-.39.27-.86.27s-.94.13-1.04.29c-.23.37-.93.38-1.15.02h0Zm81.61-1.48c-.36-.58.15-.84,1.03-.54,1.27.44,1.35.83.17.83-.56,0-1.1-.13-1.2-.29Zm-18.22-1.17c0-.16.13-.29.29-.29s.29.13.29.29-.13.29-.29.29-.29-.13-.29-.29Zm-80.58-.25c-.13-.2-.15-.45-.05-.54.26-.26.55.12.4.55-.1.3-.17.3-.35,0h0Zm72.71-.04c0-.16.13-.29.29-.29s.29.13.29.29-.13.29-.29.29-.29-.13-.29-.29Zm-32.45-.49c-.41-.41-.17-1.23.4-1.41.64-.2,1.44.28,1.44.88s-1.4.98-1.85.53ZM.3,264.61c-.2-.32.26-.67.53-.4.28.28.23.67-.09.67-.15,0-.35-.12-.44-.27Zm76.8-.02c0-.16.2-.29.44-.29s.44.13.44.29-.2.29-.44.29-.44-.13-.44-.29Zm-28.93-1.57c-.48-.37-.48-.41,0-.84.28-.25,1.13-.55,1.89-.66,1.14-.17,1.38-.12,1.38.24,0,.24-.57.72-1.26,1.05-1.47.71-1.37.7-2.02.21h0Zm290.5-.06c-.21-.53.36-.98,1.24-.99.83,0,1.03.26.68.91-.36.67-1.68.72-1.93.08h0Zm114.83.03c-1.02-.44-1.27-1.03-.44-1.02,1.01.01,3.39.76,3.5,1.1.16.49-1.87.44-3.07-.08h0Zm-398.05-.32c.2-.09.36-.35.36-.57,0-.49,1.97-.91,2.37-.51.44.44-.34.91-1.8,1.09-.71.09-1.13.08-.93-.01h0Zm291.79-1.19c-1.54-1.09-1.39-1.98.4-2.43.54-.14,1.26-.33,1.59-.44.45-.14.87.09,1.68.92,1.26,1.3,1.36,2.05.33,2.44-1.35.51-2.84.33-3.99-.49h0Zm-53.66.29c-.42-.42-.18-.91.39-.76.32.08.58.33.58.56,0,.42-.63.55-.97.21Zm5.97-.2c-.51-.62-.04-.79.87-.32.46.24.84.5.84.57,0,.32-1.41.11-1.71-.25h0Zm52.43-2.65c0-.25.13-.45.29-.45s.29.12.29.27-.13.36-.29.45c-.16.1-.29-.02-.29-.27Zm-176.71-2.06c-.42-.48-.94-.73-1.53-.73s-1.49-.42-2.59-1.2c-1.9-1.35-2.12-2.15-.59-2.15.5,0,1.01-.1,1.14-.22s.46-.22.75-.22.53-.12.53-.27c0-.48,2.61-.12,3.23.44.52.47.57.79.45,2.73-.08,1.21-.15,2.23-.16,2.27-.08.29-.71-.05-1.24-.66h0Zm188.08.09c-1.13-.77-1.48-1.95-.75-2.55.24-.2,1.21-.44,2.14-.52,1.38-.12,1.94-.03,2.94.48,1.49.76,2.12,1.98,1.32,2.57-.28.21-.78.37-1.11.38-.33,0-1.26.08-2.06.17-1.23.14-1.62.06-2.48-.52h0Zm128.04.34c-.36-.15-.66-.46-.66-.69,0-.94,3.37-1.05,3.66-.12.09.29.08.66-.02.82-.22.36-2.09.35-2.99,0h0Zm-135.77-1.16c-.1-.16-.04-.29.13-.29s.31.13.31.29-.06.29-.13.29-.21-.13-.31-.29Zm36.66-.48c-.71-.29-.36-1.21.7-1.83,1.17-.69,1.85-.61,1.85.22,0,1.08-1.51,2.04-2.55,1.62Zm-230.65-1.26c0-.16.12-.29.27-.29s.36.13.45.29c.1.16-.02.29-.27.29s-.45-.13-.45-.29Zm-8.93-.29c-.98-.4-1.09-.86-.37-1.63.8-.85,1.32-.9,1.72-.15.16.31.69.65,1.18.75,1.01.22,1.12.58.31,1.01-.67.36-1.96.36-2.83.01Zm13.02-1.2c-1.34-.26-3.79-1.43-4.77-2.27-.33-.29-1.11-.48-2.04-.49-1.61-.03-4.38-1.23-5.69-2.47-.62-.59-.64-.68-.2-.93.27-.15.7-.19.95-.09.67.26,1.83-.95,1.83-1.89,0-.43-.23-1.1-.52-1.48-.73-.98-.57-4.63.22-4.83.29-.07.81-.53,1.16-1,.51-.69.73-.8,1.04-.53.22.18.54.25.71.15.55-.34.32-.74-.42-.74-.57,0-.73-.15-.73-.67,0-.37-.15-.82-.33-1-.24-.24-.24-.57,0-1.26.18-.51.25-1.24.15-1.61-.12-.48.03-.88.53-1.38.99-.99,1.39-2.64,1.19-4.96-.16-1.85-.13-2,.45-2.15.34-.09.89-.6,1.22-1.13.33-.53.86-1.05,1.17-1.15.31-.1.65-.51.75-.91.13-.52.27-.64.5-.42.17.17.63.31,1.02.31.56,0,.64.08.38.39-.18.22-.24.48-.13.58.3.3,1.26.23,1.26-.09,0-.16.16-.22.36-.14.25.1.38.94.4,2.63.02,1.37.09,2.53.15,2.58.06.05.5.17.99.26.74.14.93.05,1.24-.6.44-.92.47-1.82.07-1.82-.16,0-.29-.11-.29-.24s.38-.19.85-.12c.66.1.89,0,1.04-.49.16-.51.29-.56.79-.29.33.18.91.26,1.3.18.39-.07.78-.01.87.14.09.15.5.4.9.55.55.21.69.43.57.88-.22.85.06,1.42.71,1.42.52,0,.52.06-.13,1.09-.37.6-.77,1.32-.87,1.6-.1.28-.46.51-.79.51s-.68.2-.77.44c-.13.33-.42.4-1.12.27-.56-.11-1.03-.05-1.15.14-.56.91-1.8-.28-2.19-2.09-.14-.64-.35-.91-.67-.86-.26.04-.55-.05-.65-.22-.27-.44-2.36-.36-2.75.11-.19.22-.82.46-1.4.53-1.34.16-2.26-.63-2-1.69.21-.82-.14-.93-.6-.19-.47.76-.16,2.4.46,2.4.28,0,.64.31.81.68.18.38.72.8,1.26.95.71.2,1.04.53,1.32,1.29.48,1.33.51,2.91.06,2.91-.23,0-.19.17.12.47.59.59,1.31.27.8-.35-.26-.32-.24-.45.13-.59.26-.1.68-.1.94,0,.35.13.44.05.34-.34-.08-.32.12-.72.51-1.01.61-.46.68-.46,1.17.08.61.68,1.01.73,1.01.15,0-.23.13-.5.3-.6.36-.22,2.06,1.32,1.85,1.67-.08.14-.01.42.16.63.17.21.4.99.5,1.73.15,1.07.09,1.39-.27,1.53-.25.1-.4.34-.32.53.09.23-.2.37-.82.4-1.24.06-2,.2-2.64.49-.29.13-.55.19-.58.13-.03-.06-.26-.5-.51-.98-.27-.53-.82-1-1.39-1.18-.52-.17-.87-.38-.78-.47.09-.09-.16-.38-.56-.64-.7-.46-.75-.44-1.6.46-.55.59-1.16.94-1.66.95-1.05.02-1.23.66-.29,1.02,1.03.39,1.95,1.37,1.76,1.88-.22.57.38,1.63.92,1.63.24,0,.51-.2.6-.44s.38-.44.65-.45c.26,0,.73-.2,1.04-.44.81-.61,1.12-.54,2.23.52.99.94,2.42,2.84,2.14,2.84-.08,0-.01.25.16.57.46.85-1.12,3.09-2.36,3.33-2.25.45-2.76.28-3.9-1.31-.95-1.33-1.03-1.57-.72-2.16.42-.78.15-2.17-.42-2.17-.22,0-.48.4-.58.9-.26,1.32-1.15,2.41-2.49,3.05-1.21.58-1.53,1-.76,1,.23,0,.58.3.78.66.49.92,1.15,1.36,2.04,1.38.42,0,.93.2,1.13.44.2.24.49.36.64.26.18-.11.17-.29-.03-.49-.61-.61-.31-.88.34-.29.75.68,1.47.99,2.63,1.14,1.23.16,1.96.65,1.96,1.31,0,.33.14.86.32,1.19.57,1.06-.33,1.3-2.95.79h0Zm-6.39-4.42c-.04-.35-.44-.28-.56.09-.06.19.04.3.23.23.19-.06.34-.21.33-.33h0Zm231.36,4.55c.2-.08.53-.08.73,0s.04.15-.36.15-.56-.07-.36-.15Zm-302.32-1.99c-.1-.27,0-.53.25-.63.6-.23,1.38.11,1.24.55-.18.55-1.29.61-1.49.08h0Zm367.7-1.41c-2.48-.65-1.38-1.94,1.66-1.94.98,0,1.45.17,2.02.74.6.6.67.82.39,1.17-.42.51-2.2.52-4.07.04h0Zm-282.24-.99c-.64-.1-.83-.32-.98-1.14-.1-.56-.11-1.09-.02-1.19.09-.09.04-.42-.12-.72-.2-.37-.19-.74.04-1.16.28-.53.5-.59,1.5-.43.91.15,1.25.08,1.53-.3.31-.43.48-.24,1.29,1.49.51,1.09.87,2.16.78,2.38-.21.54-1.05.51-1.05-.04,0-.8-.83-.45-1.02.44-.2.89-.29.92-1.96.67h0Zm255.2-.75c-1.58-.78-1.58-1.36,0-2.52,1.85-1.36,3.15-1.67,4.43-1.07,1.28.61,1.82,1.48,1.3,2.11-.54.65-2.62,1.77-3.61,1.94-.56.1-1.32-.07-2.11-.46h0Zm-25.96.03c-.19-.19-.35-.45-.35-.58,0-.38,1.07-.26,1.42.16.58.7-.4,1.09-1.07.43h0Zm-254.98-2.88c-1.94-1.29-2.41-1.92-1.21-1.62,1.21.3,3.54,1.78,3.64,2.32.15.76-.52.56-2.43-.7h0Zm302.44.32c0-.64.04-.66.7-.41.66.25.57.99-.12.99-.39,0-.58-.19-.58-.58h0Zm26.24-.15c0-.24.43-.71.95-1.04.76-.48,1.26-.57,2.52-.45,1.48.14,2.71.8,2.28,1.23-.31.31-2.56.67-4.22.69-1.18,0-1.53-.09-1.53-.43h0Zm-131.26-.33c-.11-.11-.2-.45-.2-.76,0-.41.17-.53.66-.46.43.06.66.29.66.67,0,.58-.72.94-1.11.55Zm-9.54-1.1c-1.43-.47-2.4-2.02-2.21-3.53.08-.64.16-1.27.16-1.4.03-.51,1.95-1.04,2.96-.81,1.61.36,2.24.83,2.6,1.92.42,1.27.17,2.52-.67,3.28-.86.78-1.65.93-2.84.55h0Zm8.97-1.22c-1.4-.76-.85-1.22,1.24-1.02.82.08,1.82.85,1.58,1.23-.25.4-1.93.27-2.82-.21Zm-198.66-.13c-.39-.16-.66-.52-.66-.88,0-.34-.14-.88-.32-1.21-.43-.79-.12-2.24.68-3.24.58-.72.91-.84,2.78-.99,1.17-.1,2.19-.29,2.28-.42.32-.52.99-.23.99.42,0,.37.14.81.32.99.32.32.04,1.62-.72,3.26-.74,1.59-3.7,2.74-5.36,2.07h0Zm240.01-.26c-.28-.31-.82-.64-1.21-.73-.83-.21-.93-.64-.2-.87.67-.21,3.06-.05,3.51.22.51.31.44.89-.18,1.45-.7.63-1.3.61-1.92-.07h0Zm-303.26-.33c-.68-.28-.89-1.27-.34-1.61.17-.11.83.04,1.46.32,2.1.95,1.05,2.16-1.12,1.29Zm273.21-.27c-.32-.13-1.22-.47-1.99-.74-1.69-.6-2.01-1.18-1.04-1.92.69-.53.7-.55.18-1.47-.32-.58-.42-1.03-.25-1.2.4-.4,6.58-.33,7.37.09q.65.35-.27.83l-.93.48.72,1.06c.4.58.89,1.13,1.09,1.21.25.1.06.45-.58,1.05-.8.75-1.18.89-2.33.88-.76-.01-1.64-.13-1.96-.26h0Zm14.92-1.35c-1.19-.65-.82-1.11,1.09-1.35,1.77-.22,2.79.07,2.79.8,0,1-2.41,1.35-3.88.55h0Zm106.04.15c-.32-.51.35-.94,1.16-.73,1.06.27.98,1.05-.11,1.05-.47,0-.95-.14-1.05-.32Zm-301.2-.87c-.21-.33-.29-.86-.2-1.17.13-.4.04-.56-.29-.56-.26,0-.76-.27-1.11-.6l-.64-.6.7-.57c.65-.53.75-.54,1.4-.1.86.56,1.54.15,1.54-.92,0-.7.67-.96,1.02-.39.1.16.54.26.96.22.64-.07.76.03.68.5-.05.32-.1.87-.1,1.23,0,.38-.24.72-.58.83-.43.14-.53.35-.41.85.22.89-.67,1.27-1.23.53-.38-.5-.39-.5-.31.06.19,1.26-.79,1.75-1.44.71h0Zm-33.01-.37c-.94-.72-2.6-3.21-3.07-4.64-.49-1.48-.49-1.49.16-2.02l.66-.53-1.05-1.17c-.79-.87-1.05-1.42-1.05-2.19,0-1.03-.39-1.37-.68-.6-.09.23-.5.64-.92.92-.73.48-.78.47-1.47-.18-1.19-1.12-2.18-3.42-2.17-5.08,0-1.82.28-2.29,1.35-2.26,2.12.05,2.71.36,3.06,1.63.52,1.84.85,2.09,2.03,1.53.66-.31,1.65-.44,3.02-.39l2.04.07.27,1.09c.16.64.49,1.16.8,1.26.56.18.72.86.26,1.14-.15.09-.43.92-.61,1.84-.37,1.78-.7,2.4-1.32,2.4-.21,0-.72.13-1.14.29-.72.27-.74.33-.34,1.09.23.44.69,1.05,1.02,1.36.79.71,1.07,2.28.62,3.38-.49,1.18-.92,1.49-1.47,1.07h0Zm37.75-.22c-.11-.17-.05-.46.13-.64.24-.24.32-.15.32.32,0,.7-.15.81-.45.32h0Zm310.4-.26c-.79-.34-.81-.57-.16-1.7.6-1.05,2.84-2.53,3.35-2.21.2.12.82.3,1.38.39.78.13,1.06.34,1.19.89.12.52.4.75.96.82,1.17.14.96.58-.59,1.27-1.54.68-5.08.99-6.12.55h0Zm-114.93-.52c-.56-.28-1.06-.75-1.12-1.04-.09-.49.05-.52,1.6-.33,1.92.23,2.92.86,2.39,1.49-.45.54-1.66.49-2.88-.12h0Zm38.99.2c-.71-.41-.64-.81.21-1.19.82-.38,2.49.14,2.49.78s-1.81.93-2.7.41h0Zm57.35-.56c-.23-.37.59-.7,1.19-.47.58.22.26.76-.46.76-.3,0-.63-.13-.73-.29Zm-290.17-1.63c.01-.34.08-.41.18-.18.08.21.07.46-.02.56-.1.1-.17-.08-.15-.38h0Zm-117.98-.56c-.1-.26-.05-.61.12-.78.44-.44,1.58,0,1.47.58-.13.66-1.35.81-1.58.19h0Zm341.38-.57c-.55-.41-.55-.44.18-1.18.47-.48.92-.69,1.22-.57.62.24,1.46,1.53,1.23,1.89-.27.43-2,.34-2.64-.14h0Zm16.63-.16c-.1-.16-.04-.29.13-.29s.31.13.31.29-.06.29-.13.29-.21-.13-.31-.29Zm-45.62-.95c0-.4-3.88-1.96-4.86-1.96-.32,0-1.34.26-2.26.57l-1.67.57-.7-.7c-.85-.85-1.21-2.12-.74-2.59.21-.21,1.28-.34,2.74-.33,2.06,0,2.54.11,3.41.71.55.39,1.07.79,1.15.89.42.54,1.35.74,2.65.57.96-.12,1.62-.07,1.94.17.44.32.42.44-.23,1.4-.71,1.05-1.44,1.39-1.44.68h0Zm-225.19-1.06c-2-.4-2.79-1.86-2.19-4.08.38-1.4,1.77-2.37,2.51-1.75.23.19.5.27.6.17.31-.31,1.78.74,2.13,1.5.39.86.1,3.84-.39,3.98-.89.27-1.87.33-2.66.17h0Zm276.04-.47c-.55-.43-.54-.44.14-.36.39.04.76.25.83.45.16.5-.28.46-.97-.08h0Zm-247.91-.74c0-.17.13-.23.29-.13.16.1.29.24.29.31s-.13.13-.29.13-.29-.14-.29-.31Zm174.61-.27c0-.16.2-.29.44-.29s.44.13.44.29-.2.29-.44.29-.44-.13-.44-.29Zm3.26-.71c-.76-.87-.85-1.13-.65-2.01.31-1.39.46-1.57,1.62-1.95.56-.18,1.02-.43,1.02-.54s-.46-.64-1.02-1.17c-1.26-1.19-1.3-1.92-.12-2.53.83-.43.88-.54.7-1.6-.39-2.29,1.72-3.76,4-2.81,1.34.56,1.86,1.94,1.4,3.68-.23.86-.23,1.35,0,1.79.49.92.16,1.36-1.68,2.23-.93.44-1.73.82-1.77.84-.05.02.18.49.51,1.02.83,1.35.76,1.9-.39,3.05-1.34,1.34-2.43,1.34-3.62,0h0Zm35.22.13c0-.16.12-.29.27-.29s.36.13.45.29-.02.29-.27.29-.45-.13-.45-.29Zm-281.72-2.25c-1.13-.07-1.97-.31-2.44-.68-.4-.31-.9-.57-1.12-.57-.84,0-3.15-2.3-3.76-3.75l-.54-1.27.83-1.5c.46-.83,1.02-1.73,1.26-2,.27-.32.36-.77.24-1.24-.25-.99.21-1.79,1.17-2.03,1.09-.27,3.61.4,4.49,1.19.79.71,2.89,1.56,3.89,1.57.34,0,1.73.47,3.1,1.03,1.36.56,3.07,1.22,3.79,1.46.72.24,1.52.55,1.78.7.26.14,1,.4,1.65.58,1.43.39,1.64.84.93,2.01-.39.63-.91,1-1.8,1.23-.69.19-1.55.45-1.92.6-.37.14-1.15.26-1.74.26-.65,0-1.99.45-3.41,1.14-2.5,1.22-3.66,1.45-6.4,1.27h0Zm314.26-.61c-.65-.72-.61-1.22.1-1.22s1.85,1.06,1.6,1.47c-.28.46-1.18.32-1.7-.25h0Zm-37.5-.49c0-.47.16-.73.46-.73.31,0,.4-.17.28-.54-.24-.77.53-1.32,1.52-1.08.44.11,1.16.27,1.6.36,2.21.45,1.37,1.85-1.11,1.85-1.15,0-1.64.12-1.76.44-.28.72-.98.51-.98-.29h0Zm17.83-.53c-.81-.87-.8-1.07.07-1.07.98,0,1.76.8,1.31,1.34-.46.55-.64.52-1.38-.27Zm58.83-.17c0-.3,1.06-.63,1.29-.4.09.09.08.27,0,.41-.2.33-1.29.32-1.29,0h0Zm-85.76-.23c-.5-.13-.88-.93-.93-1.99-.03-.49-.29-.61-1.63-.73-1.8-.16-2.81-.62-2.49-1.14.3-.49,2.32-1.72,3.15-1.93.73-.18,3.6.6,3.88,1.06.09.14.41.26.72.26.75,0,.73.77-.03,1.17-.42.23-.54.49-.41.91.3.93-.08,1.87-.89,2.24-.41.19-.78.33-.81.31-.03-.02-.28-.09-.56-.16h0Zm17.27-.23c-.72-.87.31-1.35,1.52-.7.6.32.6.34.07.73-.7.51-1.15.5-1.59-.03h0Zm-27.92-1.47c-1.08-.47-1.21-1.01-.36-1.54.5-.31.53-.45.22-.96-.31-.51-.28-.66.21-1.03.32-.24,1.09-.58,1.71-.77,1.34-.4,2.38.03,3.08,1.27.36.64.36.9.03,1.7-.65,1.58-2.89,2.18-4.88,1.32Zm-185.62-1.02c-.1-.16-.49-.29-.86-.29-.66,0-1.13-.58-1.16-1.43-.02-.48-.74-.81-.74-.34,0,.17-.18.32-.4.32-.48,0-.83-1.81-.4-2.08.16-.1.2-.45.09-.79-.14-.43.04-.86.59-1.48.65-.73.93-.85,1.69-.69.83.16.88.14.51-.31-.22-.27-.33-.57-.24-.66.38-.38,2.46.28,3.32,1.05.99.89,1.73,2.85,1.27,3.32-.17.17-.16.48.02.81.24.44.18.54-.31.54-.33,0-.59.19-.59.42,0,.26-.36.45-.95.51-.79.08-.93.2-.86.75.09.68-.61.94-.97.36h0Zm212.79-.02c-.11-.17-.12-.38-.04-.46.23-.23,1.36.19,1.36.5,0,.38-1.09.34-1.32-.04h0Zm78.33-.24c-.66-.42-.27-1.34.62-1.44,1.02-.12,1.43.72.64,1.3-.63.46-.73.47-1.26.14Zm-61.84-.47c0-.24.12-.44.26-.44s.42.2.62.44c.3.37.26.44-.26.44-.36,0-.62-.19-.62-.44h0Zm-238.63-1.74c-.09-.23-.74-.71-1.45-1.05-1.61-.78-1.87-1.26-1.57-2.9.13-.72.17-1.41.09-1.55-.08-.13.13-.31.46-.4.34-.09.61-.32.61-.52,0-.71,4.21-.99,4.48-.3.09.24.37.44.61.44.27,0,.45.26.45.66,0,.8.27,1.22.94,1.47.67.25.66,1.08-.01,1.08-.33,0-.66.37-.89,1.02-.33.92-.48,1.02-1.46,1.02-.6,0-1.23-.15-1.41-.32-.39-.39-.96-.1-.96.49,0,.23.26.42.58.42s.58.19.58.44c0,.56-.84.57-1.06.01h0Zm-1.86-2.78c0-.16-.13-.29-.29-.29s-.29.13-.29.29.13.29.29.29.29-.13.29-.29Zm227.76,2.75c-.21-.55.31-1.15.75-.87.48.3.38,1.33-.13,1.33-.25,0-.53-.21-.62-.46Zm-17-.66c-1.53-.59-1.88-1.39-.73-1.68.59-.15.95-.02,1.57.57.44.42,1.02.77,1.29.77s.49.2.49.44c0,.57-.97.54-2.62-.1Zm96.78.24c.57-.37.87-.37.87,0,0,.16-.3.29-.66.29-.53,0-.57-.06-.22-.29h0Zm-88.84-.77c-1.25-.88-.63-2.98.89-3.01.29,0,.74.36,1,.82.26.45.86,1.04,1.32,1.31s.79.65.73.85c-.19.57-3.14.59-3.94.03h0Zm11-.98c0-.16.14-.29.31-.29s.23.13.13.29-.24.29-.31.29-.13-.13-.13-.29Zm-236.16-.53c-.22-.35-.63-.63-.91-.63s-.51-.13-.51-.3-.46-.74-1.02-1.29c-.57-.55-.89-1.08-.73-1.18.31-.19.25-1.56-.1-2.12-.12-.19,0-.67.26-1.06.57-.86,3.01-1.51,3.93-1.05.32.16.84.42,1.16.58.32.16.78.29,1.02.29s.44.13.44.29-.2.29-.44.29-.44.2-.44.44.26.44.58.44.58.19.58.44.21.44.46.44c.54,0,.33,1.01-.39,1.82-.35.4-.37.59-.09.93.29.34.25.57-.18,1.16-.58.8-.84.91-1.12.46-.29-.47-1.55-.34-1.85.2-.25.44-.31.42-.67-.15h0Zm2.81-1.51c.1-.16.04-.29-.13-.29s-.31.13-.31.29.06.29.13.29.21-.13.31-.29Zm213.02.88c-1.03-.63-1.21-1.44-.62-2.74.48-1.05,2.41-1.36,3.25-.52.88.88.79,2.31-.2,3.15-.97.83-1.23.84-2.44.1Zm-348.66-.2c.12-.64.97-.73.97-.1,0,.24-.24.48-.54.54-.39.08-.51-.04-.43-.43Zm432.7-.08c-.2-.32.26-.67.53-.4.28.28.23.67-.09.67-.15,0-.35-.12-.44-.27Zm-95.07-.65c-.12-.19.07-.56.42-.85.74-.6.81-1.22.19-1.73-.68-.57-.53-1.42.28-1.63.39-.1.87-.36,1.06-.59.42-.51,2.32-.54,2.98-.04.84.62,1.09,2.08.54,3.19-.37.75-.82,1.08-1.94,1.46-1.74.58-3.24.66-3.53.19h0Zm-183.42-2.3c-.38-.61-1.14-.62-1-.02.12.55-.37.37-1.09-.4-.38-.4-.98-.73-1.35-.73s-.74-.13-.84-.3c-.1-.16-.31-.22-.45-.13-.15.09-.27.02-.27-.15s.23-.28.51-.24c.28.05.5-.08.48-.28-.02-.2-.05-.63-.07-.96-.03-.36-.17-.52-.37-.4-.37.23-.83-.37-.84-1.09,0-.28.26-.53.62-.58.36-.05.85-.53,1.17-1.11.3-.56.75-1.18,1.01-1.36.55-.41,1.28-.2,1.28.38,0,.54.48.52.69-.03.09-.24.03-.44-.13-.44s-.22-.13-.12-.29c.26-.42.73-.36.73.09,0,.47.76,1.25,2.31,2.37,1.25.9,1.48,1.44.75,1.73-.24.09-.44.43-.44.76s-.13.59-.29.59-.29-.13-.29-.29-.12-.29-.26-.29-.2.24-.12.54c.1.37-.05.59-.46.7-.69.18-.83.8-.19.8s.81.49.39,1.15c-.47.76-.87.75-1.34,0h0Zm224.04.24c-.28-.76.14-1.09,1.39-1.09,1.32,0,1.96.46,1.27.91-.22.14-.69.19-1.04.11s-.72-.02-.82.14c-.25.4-.64.37-.8-.07h0Zm-11.71-1.26c-1.11-.22-2.14-.53-2.3-.69-.3-.3-.17-.34,2.57-.9.8-.17,1.88-.52,2.39-.79.87-.46.97-.46,1.47,0,.48.43.7.44,2.04.09,1.65-.43,2.15-.3,1.24.34-.32.23-.51.54-.41.7.1.16.1.48.01.72-.14.38-.3.37-1.25-.02-1.05-.44-1.1-.43-1.77.28-.77.83-1.12.85-3.99.28h0Zm-307.71-.71c0-.16.26-.29.58-.29s.58.13.58.29-.26.29-.58.29-.58-.13-.58-.29Zm376.55-.02c-1.02-.61-.37-1.98,1.17-2.45.81-.25,1.01.19.71,1.59-.24,1.1-.93,1.42-1.87.86h0Zm-87.09-1.15c0-.16.2-.29.45-.29s.37.13.27.29-.3.29-.45.29-.27-.13-.27-.29Zm11.43-.06c-.83-.83,0-3.44,1.09-3.44.69,0,1.77.61,1.77,1.01,0,.24.33.65.73.92.96.63.92.84-.26,1.4-1.17.55-2.83.61-3.32.12h0Zm21.4-.97c-.58-.58-.59-.9-.03-1.11,1.04-.4,1.74.55.91,1.25-.31.26-.51.23-.87-.13h0Zm17.13-.85c-.34-.88.47-1.32,1.35-.73.38.25.36.35-.13.72-.71.54-1.01.54-1.22,0h0Zm-47.26-.82c-1.11-1.39-.43-3.13,1.23-3.13s2.45,1.43,1.46,2.85c-.51.73-2.18.91-2.68.28h0Zm39.57.15c-1-.18-1.33-.55-.92-1.04.25-.3.69-.35,1.66-.2,1.75.27,2.25.75,1.18,1.15-.44.17-.89.28-.99.26s-.53-.1-.93-.17Zm26.69-2.1c-.61-.68-.38-1.18.55-1.18.81,0,1.46.7,1.23,1.31-.24.61-1.16.55-1.77-.12h0Zm-74.54-.13c-1.63-.81-1.19-3.39.58-3.39,1.02,0,1.68.51,1.9,1.48.34,1.45-1.13,2.58-2.48,1.91h0Zm38.23-1.05c0-.16.14-.29.31-.29s.23.13.13.29c-.1.16-.24.29-.31.29s-.13-.13-.13-.29Zm-8.89-2.62c.1-.16.24-.29.31-.29s.13.13.13.29-.14.29-.31.29-.23-.13-.13-.29Zm19.82-1.96c-.69-.17-1.31-.64-1.31-.98,0-.14.42-.46.93-.73.81-.42.97-.42,1.24-.05.17.23.74.65,1.26.92.52.27.95.62.95.77,0,.29-1.99.34-3.06.07h0Zm-38.07-3.05c-.61-1.13,1.02-1.79,2.78-1.12,1.02.39.94.83-.26,1.33-1.41.59-2.12.53-2.51-.21h0Zm-311.1-4.51c-.33-.33.1-.69.84-.69.8,0,.95.43.25.7-.59.23-.85.22-1.09,0h0Zm58.47-2.73c-2.27-1.31-2.61-2.33-1.57-4.75.43-1.01.84-1.43,1.84-1.92,1.5-.72,2.07-.77,2.62-.22.22.22.82.62,1.33.88.51.27.95.64.97.84.07.79.13.97.49,1.61.33.58.3.8-.22,1.64-.33.53-.6,1.17-.6,1.41,0,.66-.58,1-2.04,1.2-1.12.16-1.53.06-2.83-.69h0Zm-4.59-4.74c.23-.78,1.01-1.68,1.01-1.17,0,.55-.66,1.83-.94,1.83-.15,0-.18-.3-.07-.66Zm6.7-4.02c-2.19-1.4-2.09-6.14.15-6.59.47-.09,1.01-.35,1.19-.57.18-.22.83-.4,1.44-.4.87,0,1.26.19,1.84.87.94,1.12,1.57,3.91,1.04,4.56-.2.25-.39.7-.41,1.01-.05.7.07.64-2.23,1.23-2.27.58-1.92.59-3.01-.1Zm-5.52-4.85c-.92-1.37-1.07-1.79-.91-2.62.1-.55.37-1.06.59-1.15.55-.21,1.52.36,2.09,1.23.42.65.44.92.1,2.34-.21.88-.47,1.66-.57,1.72-.1.06-.68-.62-1.29-1.51h0Zm-5.25-12.02c-.57-.6-.87-1.26-.97-2.19-.16-1.45-.16-1.46.91-1.05.93.35,1.7,1.81,1.58,3-.12,1.21-.53,1.28-1.52.25Z"/>
      <g>
        <path d="m547.71,127.01h-40.61l-8.31,22.59h11.85c1.47,0,2.53.28,3.16.85.64.56.96,1.31.96,2.24,0,.88-.32,1.62-.96,2.21-.64.59-1.69.88-3.16.88h-23.1c-1.47,0-2.53-.29-3.16-.88-.64-.59-.96-1.32-.96-2.21,0-.93.32-1.68.96-2.24.64-.56,1.69-.85,3.16-.85h4.78l27.3-73.72h-18.25c-1.47,0-2.53-.28-3.16-.85-.64-.56-.96-1.31-.96-2.24s.32-1.68.96-2.24c.64-.56,1.69-.85,3.16-.85h31.12l30.17,79.9h4.78c1.47,0,2.53.28,3.16.85.64.56.96,1.31.96,2.24,0,.88-.32,1.62-.96,2.21-.64.59-1.69.88-3.16.88h-23.03c-1.52,0-2.6-.29-3.24-.88-.64-.59-.96-1.32-.96-2.21,0-.93.32-1.68.96-2.24.64-.56,1.72-.85,3.24-.85h11.77l-8.46-22.59Zm-2.35-6.18l-17.07-44.96h-2.28l-16.55,44.96h35.91Z"/>
        <path d="m630.66,155.78v-9.05c-8.44,7.65-17.56,11.48-27.37,11.48-6.03,0-10.62-1.64-13.76-4.93-4.07-4.32-6.11-9.34-6.11-15.08v-39.88h-8.31c-1.47,0-2.53-.29-3.16-.88-.64-.59-.96-1.35-.96-2.28,0-.88.32-1.62.96-2.21.64-.59,1.69-.88,3.16-.88h14.49v46.13c0,4.02,1.27,7.33,3.83,9.93,2.55,2.6,5.74,3.9,9.57,3.9,10.05,0,19.28-4.61,27.66-13.83v-39.88h-11.4c-1.47,0-2.53-.29-3.16-.88-.64-.59-.96-1.35-.96-2.28,0-.88.32-1.62.96-2.21.64-.59,1.69-.88,3.16-.88h17.58v57.54h5.22c1.47,0,2.53.28,3.16.85.64.56.96,1.31.96,2.24,0,.88-.32,1.62-.96,2.21-.64.59-1.69.88-3.16.88h-11.4Z"/>
        <path d="m554.56,213.16v-4.34c0-1.47.28-2.53.85-3.16.56-.64,1.31-.96,2.24-.96s1.68.32,2.24.96c.56.64.85,1.69.85,3.16v17.14c0,1.52-.28,2.6-.85,3.24-.56.64-1.31.96-2.24.96-.83,0-1.53-.29-2.1-.88-.56-.59-.9-1.54-.99-2.87-.25-4.12-2.48-7.77-6.7-10.96-5.69-4.37-12.17-6.55-19.42-6.55-4.76,0-9.25,1.06-13.46,3.16-3.14,1.52-5.64,3.38-7.5,5.59-3.24,3.83-5.81,8.07-7.73,12.73-1.37,3.43-2.06,7.31-2.06,11.63v10.82c0,9.22,3.33,17.23,10.01,24.02,6.67,6.79,14.42,10.19,23.25,10.19,5.3,0,10.04-1.15,14.24-3.46,4.19-2.3,8.25-5.79,12.18-10.45.83-1.03,1.77-1.55,2.8-1.55.88,0,1.59.27,2.13.81.54.54.81,1.23.81,2.06,0,1.13-1.06,2.84-3.16,5.15-4.02,4.51-8.55,7.91-13.58,10.19-5.03,2.28-10.12,3.42-15.27,3.42-4.46,0-9-.86-13.61-2.58-3.53-1.32-6.45-2.87-8.76-4.63-2.31-1.77-5.14-4.75-8.5-8.94-3.36-4.19-5.65-8.07-6.88-11.62-1.23-3.56-1.84-7.47-1.84-11.74v-12.58c0-6.08,1.63-12.3,4.89-18.65,3.26-6.35,7.73-11.23,13.39-14.64,5.67-3.41,11.81-5.11,18.43-5.11,10.2,0,18.98,3.48,26.34,10.45Z"/>
        <path d="m589.16,198.44v38.04c3.92-4.27,7.69-7.27,11.29-9.01,3.61-1.74,7.64-2.61,12.1-2.61,4.81,0,8.89.85,12.25,2.54,3.36,1.69,6.17,4.29,8.43,7.8,2.25,3.51,3.38,7.2,3.38,11.07v38.33h6.92c1.52,0,2.59.28,3.2.85.61.56.92,1.31.92,2.24,0,.88-.31,1.62-.92,2.21s-1.68.88-3.2.88h-20.09c-1.52,0-2.6-.29-3.24-.88-.64-.59-.96-1.32-.96-2.21,0-.93.32-1.68.96-2.24.64-.56,1.71-.85,3.24-.85h6.92v-37.89c0-4.46-1.61-8.19-4.82-11.18-3.21-2.99-7.69-4.49-13.43-4.49-4.51,0-8.36,1.1-11.55,3.31-2.31,1.57-6.11,5.27-11.4,11.11v39.14h6.99c1.47,0,2.53.28,3.16.85.64.56.96,1.31.96,2.24,0,.88-.32,1.62-.96,2.21-.64.59-1.69.88-3.16.88h-20.16c-1.47,0-2.53-.29-3.16-.88-.64-.59-.96-1.32-.96-2.21,0-.93.32-1.68.96-2.24.64-.56,1.69-.85,3.16-.85h6.99v-79.9h-8.31c-1.47,0-2.53-.29-3.16-.88-.64-.59-.96-1.35-.96-2.28,0-.88.32-1.62.96-2.21.64-.59,1.69-.88,3.16-.88h14.49Z"/>
        <path d="m709.42,290.78v-8.9c-8.98,7.55-18.57,11.33-28.77,11.33-7.41,0-13.2-1.88-17.36-5.63-4.17-3.75-6.25-8.35-6.25-13.8,0-5.98,2.75-11.21,8.24-15.67,5.49-4.46,13.51-6.7,24.06-6.7,2.84,0,5.93.18,9.27.55,3.34.37,6.94.95,10.82,1.73v-10.01c0-3.38-1.57-6.33-4.71-8.83-3.14-2.5-7.85-3.75-14.13-3.75-4.81,0-11.55,1.4-20.23,4.19-1.57.49-2.58.74-3.02.74-.79,0-1.46-.29-2.02-.88-.56-.59-.85-1.32-.85-2.21,0-.83.25-1.5.74-1.99.69-.74,3.46-1.74,8.31-3.02,7.65-2.06,13.44-3.09,17.36-3.09,7.8,0,13.88,1.93,18.25,5.78,4.37,3.85,6.55,8.2,6.55,13.06v40.91h8.24c1.52,0,2.6.28,3.24.85.64.56.96,1.31.96,2.24,0,.88-.32,1.62-.96,2.21-.64.59-1.72.88-3.24.88h-14.49Zm0-30.75c-2.89-.83-5.96-1.45-9.2-1.84-3.24-.39-6.65-.59-10.23-.59-8.98,0-15.99,1.94-21.04,5.81-3.83,2.9-5.74,6.35-5.74,10.38,0,3.73,1.46,6.87,4.38,9.42,2.92,2.55,7.17,3.83,12.77,3.83s10.31-1.07,14.9-3.2c4.59-2.13,9.31-5.53,14.16-10.19v-13.61Z"/>
        <path d="m766.39,227.06v15.6c8.04-7.26,14.07-11.93,18.06-14.02,4-2.08,7.69-3.13,11.07-3.13,3.68,0,7.1,1.24,10.26,3.72,3.16,2.48,4.75,4.35,4.75,5.63,0,.93-.31,1.71-.92,2.32-.61.61-1.39.92-2.32.92-.49,0-.91-.08-1.25-.26-.34-.17-.98-.72-1.91-1.66-1.72-1.72-3.21-2.89-4.49-3.53-1.28-.64-2.53-.96-3.75-.96-2.7,0-5.95,1.08-9.75,3.24-3.8,2.16-10.39,7.43-19.76,15.82v33.84h27.37c1.52,0,2.6.28,3.24.85.64.56.96,1.31.96,2.24,0,.88-.32,1.62-.96,2.21-.64.59-1.72.88-3.24.88h-48.49c-1.47,0-2.53-.28-3.16-.85-.64-.56-.96-1.29-.96-2.17,0-.83.31-1.53.92-2.1.61-.56,1.68-.85,3.2-.85h14.94v-51.5h-11.41c-1.47,0-2.53-.29-3.16-.88-.64-.59-.96-1.35-.96-2.28,0-.88.31-1.62.92-2.21.61-.59,1.68-.88,3.2-.88h17.58Z"/>
        <path d="m832.64,198.44v40.98c7.46-9.71,16.46-14.57,27-14.57,9.03,0,16.75,3.27,23.18,9.82,6.43,6.55,9.64,14.58,9.64,24.1s-3.25,17.76-9.75,24.43c-6.5,6.67-14.19,10.01-23.07,10.01-10.79,0-19.79-4.86-27-14.57v12.14h-14.49c-1.47,0-2.53-.29-3.16-.88-.64-.59-.96-1.32-.96-2.21,0-.93.32-1.68.96-2.24.64-.56,1.69-.85,3.16-.85h8.31v-79.9h-8.31c-1.47,0-2.53-.29-3.16-.88-.64-.59-.96-1.35-.96-2.28,0-.88.32-1.62.96-2.21.64-.59,1.69-.88,3.16-.88h14.49Zm53.64,60.63c0-7.8-2.67-14.41-8.02-19.83-5.35-5.42-11.6-8.13-18.76-8.13s-13.42,2.71-18.76,8.13c-5.35,5.42-8.02,12.03-8.02,19.83s2.67,14.41,8.02,19.83c5.35,5.42,11.6,8.13,18.76,8.13s13.42-2.71,18.76-8.13c5.35-5.42,8.02-12.03,8.02-19.83Z"/>
        <path d="m972.61,259.07c0,9.42-3.37,17.46-10.12,24.13s-14.88,10.01-24.39,10.01-17.78-3.35-24.5-10.04c-6.72-6.7-10.08-14.73-10.08-24.1s3.36-17.47,10.08-24.17c6.72-6.7,14.89-10.04,24.5-10.04s17.65,3.34,24.39,10.01c6.74,6.67,10.12,14.74,10.12,24.21Zm-6.25,0c0-7.75-2.76-14.35-8.28-19.79-5.52-5.44-12.2-8.17-20.05-8.17s-14.53,2.74-20.05,8.2c-5.52,5.47-8.28,12.05-8.28,19.75s2.76,14.23,8.28,19.72c5.52,5.49,12.2,8.24,20.05,8.24s14.53-2.73,20.05-8.2c5.52-5.47,8.28-12.05,8.28-19.76Z"/>
        <path d="m1000.23,227.06v9.34c4.32-4.37,8.21-7.38,11.7-9.05,3.48-1.67,7.41-2.5,11.77-2.5,4.71,0,9,1.01,12.88,3.02,2.75,1.47,5.24,3.91,7.47,7.32,2.23,3.41,3.35,6.9,3.35,10.48v38.92h5.22c1.47,0,2.53.28,3.16.85.64.56.96,1.31.96,2.24,0,.88-.32,1.62-.96,2.21-.64.59-1.69.88-3.16.88h-16.55c-1.52,0-2.6-.29-3.24-.88-.64-.59-.96-1.32-.96-2.21,0-.93.32-1.68.96-2.24.64-.56,1.72-.85,3.24-.85h5.15v-37.89c0-4.37-1.59-8.06-4.78-11.07-3.19-3.02-7.46-4.52-12.8-4.52-4.07,0-7.6.82-10.6,2.46-2.99,1.64-7.26,5.73-12.8,12.25v38.77h6.99c1.47,0,2.53.28,3.16.85.64.56.96,1.31.96,2.24,0,.88-.32,1.62-.96,2.21-.64.59-1.69.88-3.16.88h-20.16c-1.47,0-2.53-.29-3.16-.88-.64-.59-.96-1.32-.96-2.21,0-.93.32-1.68.96-2.24.64-.56,1.69-.85,3.16-.85h6.99v-51.28h-5.22c-1.47,0-2.53-.29-3.16-.88-.64-.59-.96-1.35-.96-2.28,0-.88.32-1.62.96-2.21.64-.59,1.69-.88,3.16-.88h11.4Z"/>
        <path d="m1101.12,278.45h2.44c1.79,0,3.32.67,4.6,2.02,1.27,1.35,1.91,2.97,1.91,4.87s-.65,3.58-1.94,4.9c-1.29,1.32-2.81,1.99-4.57,1.99h-2.44c-1.79,0-3.33-.67-4.6-2.02-1.27-1.35-1.91-2.95-1.91-4.8,0-1.99.65-3.64,1.94-4.97,1.29-1.32,2.81-1.99,4.57-1.99Zm5.96-73.75l-2.24,49.89c-.08,1.57-.34,2.67-.8,3.31-.45.64-1.01.96-1.68.96-.71,0-1.29-.32-1.74-.96-.45-.64-.72-1.74-.79-3.31l-2.18-49.89c-.08-1.18-.12-2.04-.12-2.58,0-1.67.46-3.06,1.38-4.19.92-1.13,2.07-1.69,3.44-1.69s2.51.56,3.41,1.69c.9,1.13,1.35,2.55,1.35,4.27,0,.49-.02,1.32-.06,2.5Z"/>
      </g>
    </g>
  </g>
</svg>